<svg xmlns="http://www.w3.org/2000/svg" viewBox="0 0 48 60" x="0px" y="0px"><title>ui vol.1</title><g data-name="Layer 14"><path d="M24,2.51A14.29,14.29,0,0,0,9.76,16.79a14.12,14.12,0,0,0,6.77,12.05V41.67a1,1,0,0,0,1,1H20.1v1.82a1,1,0,0,0,1,1H27a1,1,0,0,0,1-1V42.67h2.57a1,1,0,0,0,1-1V28.84a14.12,14.12,0,0,0,6.77-12A14.29,14.29,0,0,0,24,2.51Zm1.93,41H22.1v-.82H26Zm1-2.82H18.53V37.32h11v3.35Zm3.09-13.29a1,1,0,0,0-.52.88v7.06h-11V28.26a1,1,0,0,0-.51-.88,12.1,12.1,0,0,1-6.26-10.59,12.27,12.27,0,1,1,24.54,0A12.1,12.1,0,0,1,30.05,27.38Z"/><path d="M27.56,16l-3.8,3.46-3.21-3.41a1,1,0,1,0-1.45,1.37L23,21.59l.05,0V31a1,1,0,0,0,2,0V21.05l3.88-3.53A1,1,0,1,0,27.56,16Z"/></g><text x="0" y="63" fill="#000000" font-size="5px" font-weight="bold" font-family="'Helvetica Neue', Helvetica, Arial-Unicode, Arial, Sans-serif">Created by BlackActurus</text><text x="0" y="68" fill="#000000" font-size="5px" font-weight="bold" font-family="'Helvetica Neue', Helvetica, Arial-Unicode, Arial, Sans-serif">from the Noun Project</text></svg>