<svg xmlns="http://www.w3.org/2000/svg" viewBox="0 0 48 60" x="0px" y="0px"><title>ui vol.1</title><g data-name="Layer 13"><path d="M24.06836,47.2002a4.18733,4.18733,0,0,1-4.249-4.11329V32.03906H9.17725a1.00027,1.00027,0,0,1-.89112-1.4541L23.17725,1.34619A1,1,0,0,1,24.06836.7998h.002a.999.999,0,0,1,.89063.54932l14.7539,29.23975a.99957.99957,0,0,1-.89257,1.45019H28.18164V43.08691A4.06937,4.06937,0,0,1,24.06836,47.2002ZM10.80859,30.03906H20.81934a.99974.99974,0,0,1,1,1V43.08691a2.18688,2.18688,0,0,0,2.249,2.11329,2.06655,2.06655,0,0,0,2.11328-2.11329V31.03906a.99943.99943,0,0,1,1-1H37.19727L24.06445,4.01123Z"/></g><text x="0" y="63" fill="#000000" font-size="5px" font-weight="bold" font-family="'Helvetica Neue', Helvetica, Arial-Unicode, Arial, Sans-serif">Created by BlackActurus</text><text x="0" y="68" fill="#000000" font-size="5px" font-weight="bold" font-family="'Helvetica Neue', Helvetica, Arial-Unicode, Arial, Sans-serif">from the Noun Project</text></svg>