<svg xmlns:x="http://ns.adobe.com/Extensibility/1.0/" xmlns:i="http://ns.adobe.com/AdobeIllustrator/10.0/" xmlns:graph="http://ns.adobe.com/Graphs/1.0/" xmlns="http://www.w3.org/2000/svg" xmlns:xlink="http://www.w3.org/1999/xlink" xmlns:a="http://ns.adobe.com/AdobeSVGViewerExtensions/3.0/" version="1.1" x="0px" y="0px" viewBox="0 0 100 125" enable-background="new 0 0 100 100" xml:space="preserve"><metadata><?xpacket begin="&#65279;" id="W5M0MpCehiHzreSzNTczkc9d"?><x:xmpmeta xmlns:x="adobe:ns:meta/" x:xmptk="Adobe XMP Core 5.5-c014 79.151739, 2013/04/03-12:12:15        "/><?xpacket end="w"?></metadata><path d="M37.5,11.5H30c-0.5527344,0-1,0.4472656-1,1v4h-4c-0.5527344,0-1,0.4472656-1,1v70c0,0.5527344,0.4472656,1,1,1h40  c0.1365967,0,0.2664185-0.0280762,0.3850098-0.0776367c0.1192017-0.0498047,0.2289429-0.1223145,0.3220215-0.215332  l0.0012817-0.0012207l9.9974365-9.9975586l0.0012817-0.0012207c0.0931396-0.0931396,0.1655884-0.2028809,0.2153931-0.3220215  C75.9718628,77.7663574,76,77.6365967,76,77.5v-60c0-0.5527344-0.4472656-1-1-1h-4v-4c0-0.5527344-0.4472656-1-1-1h-7.5  c-0.5527344,0-1,0.4472656-1,1v4h-23v-4C38.5,11.9472656,38.0527344,11.5,37.5,11.5z M36.5,16.5v2v3H31v-3v-2v-3h5.5V16.5z   M26,30.6181641l4-2l4.5527344,2.2763672c0.28125,0.140625,0.6132813,0.140625,0.8945313,0L40,28.6181641l4.5527344,2.2763672  c0.28125,0.140625,0.6132813,0.140625,0.8945313,0L50,28.6181641l4.5527344,2.2763672  c0.28125,0.140625,0.6132813,0.140625,0.8945313,0L60,28.6181641l4.5527344,2.2763672  c0.28125,0.140625,0.6132813,0.140625,0.8945313,0L70,28.6181641l4,2V76.5h-9c-0.5527344,0-1,0.4472656-1,1v9H26V30.6181641z   M66,85.0859375V78.5h6.5859375L66,85.0859375z M63.5,16.5v-3H69v3v2v3h-5.5v-3V16.5z M61.5,18.5v4c0,0.5527344,0.4472656,1,1,1H70  c0.5527344,0,1-0.4472656,1-1v-4h3v9.8818359l-3.5527344-1.7763672c-0.28125-0.140625-0.6132813-0.140625-0.8945313,0L65,28.8818359  l-4.5527344-2.2763672c-0.28125-0.140625-0.6132813-0.140625-0.8945313,0L55,28.8818359l-4.5527344-2.2763672  c-0.28125-0.140625-0.6132813-0.140625-0.8945313,0L45,28.8818359l-4.5527344-2.2763672  c-0.28125-0.140625-0.6132813-0.140625-0.8945313,0L35,28.8818359l-4.5527344-2.2763672  c-0.28125-0.140625-0.6132813-0.140625-0.8945313,0L26,28.3818359V18.5h3v4c0,0.5527344,0.4472656,1,1,1h7.5  c0.5527344,0,1-0.4472656,1-1v-4H61.5z"/><path d="M61.7470703,46.8417969l-16.6875,19.0712891l-6.7597656-9.0126953  c-0.3310547-0.4433594-0.9580078-0.53125-1.3994141-0.2001953c-0.4423828,0.3310547-0.5322266,0.9580078-0.2001953,1.3994141l7.5,10  c0.1806641,0.2412109,0.4609375,0.3886719,0.7617188,0.3994141C44.9746094,68.5,44.9873047,68.5,45,68.5  c0.2880859,0,0.5625-0.1240234,0.7529297-0.3417969l17.5-20c0.3632813-0.4150391,0.3212891-1.046875-0.0947266-1.4111328  C62.7431641,46.3828125,62.1113281,46.4238281,61.7470703,46.8417969z"/><text x="0" y="115" fill="#000000" font-size="5px" font-weight="bold" font-family="'Helvetica Neue', Helvetica, Arial-Unicode, Arial, Sans-serif">Created by faisal</text><text x="0" y="120" fill="#000000" font-size="5px" font-weight="bold" font-family="'Helvetica Neue', Helvetica, Arial-Unicode, Arial, Sans-serif">from the Noun Project</text></svg>