<svg xmlns="http://www.w3.org/2000/svg" viewBox="0 0 48 60" x="0px" y="0px"><title>Ui vol.1</title><g data-name="Layer 24"><path d="M43.85254,14.27344H14.23438a1,1,0,0,1,0-2H43.85254a1,1,0,0,1,0,2Z"/><path d="M43.85254,25H14.23438a1,1,0,0,1,0-2H43.85254a1,1,0,1,1,0,2Z"/><path d="M43.85254,35.72656H14.23438a1,1,0,0,1,0-2H43.85254a1,1,0,0,1,0,2Z"/><path d="M9.59082,16.99512H4.14746a.99943.99943,0,0,1-1-1V10.55176a.99942.99942,0,0,1,1-1H9.59082a.99942.99942,0,0,1,1,1v5.44336A.99943.99943,0,0,1,9.59082,16.99512Zm-4.44336-2H8.59082V11.55176H5.14746Z"/><path d="M9.59082,27.72168H4.14746a.99943.99943,0,0,1-1-1V21.27832a.99943.99943,0,0,1,1-1H9.59082a.99943.99943,0,0,1,1,1v5.44336A.99943.99943,0,0,1,9.59082,27.72168Zm-4.44336-2H8.59082V22.27832H5.14746Z"/><path d="M9.59082,38.44824H4.14746a.99942.99942,0,0,1-1-1V32.00488a.99943.99943,0,0,1,1-1H9.59082a.99943.99943,0,0,1,1,1v5.44336A.99942.99942,0,0,1,9.59082,38.44824Zm-4.44336-2H8.59082V33.00488H5.14746Z"/></g><text x="0" y="63" fill="#000000" font-size="5px" font-weight="bold" font-family="'Helvetica Neue', Helvetica, Arial-Unicode, Arial, Sans-serif">Created by BlackActurus</text><text x="0" y="68" fill="#000000" font-size="5px" font-weight="bold" font-family="'Helvetica Neue', Helvetica, Arial-Unicode, Arial, Sans-serif">from the Noun Project</text></svg>