<svg xmlns:x="http://ns.adobe.com/Extensibility/1.0/" xmlns:i="http://ns.adobe.com/AdobeIllustrator/10.0/" xmlns:graph="http://ns.adobe.com/Graphs/1.0/" xmlns="http://www.w3.org/2000/svg" xmlns:xlink="http://www.w3.org/1999/xlink" xmlns:a="http://ns.adobe.com/AdobeSVGViewerExtensions/3.0/" version="1.1" x="0px" y="0px" viewBox="0 0 100 125" enable-background="new 0 0 100 100" xml:space="preserve"><metadata><?xpacket begin="&#65279;" id="W5M0MpCehiHzreSzNTczkc9d"?><x:xmpmeta xmlns:x="adobe:ns:meta/" x:xmptk="Adobe XMP Core 5.5-c014 79.151739, 2013/04/03-12:12:15        "/><?xpacket end="w"?></metadata><path d="M78.5,35c0-23.5-16.472168-23.5-28.5-23.5s-28.5,0-28.5,23.5c0,20.7197266,16.9487305,33.4160156,20,35.53125V71.5H40  c-0.5522461,0-1,0.4472656-1,1v5v5c0,0.2666016,0.1069336,0.5234375,0.2963867,0.7109375  C39.4838867,83.3964844,39.7368164,83.5,40,83.5c0.003418,0,0.0068359,0,0.0102539,0  C41.1809692,83.4876099,42.6030884,83.4754639,44,83.4667969V87.5c0,0.5527344,0.4477539,1,1,1h5h5c0.5522461,0,1-0.4472656,1-1  v-4.0335693c1.3968506,0.0089111,2.8190308,0.0211792,3.9897461,0.0335693c0.003418,0,0.0068359,0,0.0102539,0  c0.2631836,0,0.5161133-0.1035156,0.7036133-0.2890625C60.8930664,83.0234375,61,82.7666016,61,82.5v-5v-5  c0-0.5527344-0.4477539-1-1-1h-1.5v-0.96875C61.5512695,68.4160156,78.5,55.7197266,78.5,35z M54,86.5h-4h-4v-3.0430908  c1.9645386-0.0067749,3.5619507-0.0019531,3.8413086,0.0255127L50,82.5h-1l0.9980469-0.0019531L50,82.5h0.0595703  l0.0991211,0.9824219C50.437561,83.4539185,52.0351563,83.4491577,54,83.4561768V86.5z M59,81.4892578  c-6.012207-0.0606079-8.1366577-0.0767212-8.9972534,0.0219727C49.1459961,81.4115601,47.026001,81.4279175,41,81.4892578V78.5h1.5  c0.041626,0,0.0770264-0.0187378,0.1173096-0.0236816c3.2184448-0.0249023,6.7924805-0.0371094,7.223999,0.0061035L50,77.5h-1  l0.9980469-0.0019531L50,77.5h0.0595703l0.0991211,0.9824219c0.4307251-0.0432129,4.0038452-0.0316162,7.2221069-0.0064697  C57.4216919,78.4810181,57.4577026,78.5,57.5,78.5H59V81.4892578z M59,73.5v2.9892578  c-6.0123901-0.0612183-8.1368408-0.0772705-8.9973755,0.0216675C49.145874,76.4110718,47.0258179,76.4272461,41,76.4892578V73.5h1.5  h5h5h5H59z M48.3085938,71.5l-7.2167969-33.6777344L45,33.9140625l4.2929688,4.2929688  c0.390625,0.390625,1.0234375,0.390625,1.4140625,0L55,33.9140625l3.9082031,3.9082031L51.6914063,71.5H48.3085938z   M56.965332,69.1552734C56.6757813,69.3378906,56.5,69.6572266,56.5,70v1.5h-2.7626953l7.2407227-33.7900391  c0.0708008-0.3320313-0.03125-0.6767578-0.2709961-0.9169922l-5-5c-0.390625-0.390625-1.0234375-0.390625-1.4140625,0L50,36.0859375  l-4.2929688-4.2929688c-0.390625-0.390625-1.0234375-0.390625-1.4140625,0l-5,5  c-0.2397461,0.2402344-0.3417969,0.5849609-0.2709961,0.9169922L46.2626953,71.5H43.5V70  c0-0.3427734-0.1757813-0.6621094-0.465332-0.8447266C42.8393555,69.03125,23.5,56.5341797,23.5,35  c0-21.5,14.0786133-21.5,26.5-21.5s26.5,0,26.5,21.5C76.5,56.5341797,57.1606445,69.03125,56.965332,69.1552734z"/><text x="0" y="115" fill="#000000" font-size="5px" font-weight="bold" font-family="'Helvetica Neue', Helvetica, Arial-Unicode, Arial, Sans-serif">Created by faisal</text><text x="0" y="120" fill="#000000" font-size="5px" font-weight="bold" font-family="'Helvetica Neue', Helvetica, Arial-Unicode, Arial, Sans-serif">from the Noun Project</text></svg>