<svg xmlns="http://www.w3.org/2000/svg" viewBox="0 0 48 60" x="0px" y="0px"><title>ui vol.1</title><g data-name="Layer 25"><path d="M41.71045,7.27686H6.00391a4.14211,4.14211,0,0,0-4.1377,4.13769V35.86816a4.14212,4.14212,0,0,0,4.1377,4.1377H41.71045a4.14211,4.14211,0,0,0,4.13769-4.1377V11.41455A4.14211,4.14211,0,0,0,41.71045,7.27686Zm2.13769,28.5913a2.14013,2.14013,0,0,1-2.13769,2.1377H6.00391a2.14014,2.14014,0,0,1-2.1377-2.1377V11.41455a2.14014,2.14014,0,0,1,2.1377-2.13769H41.71045a2.14013,2.14013,0,0,1,2.13769,2.13769Z"/><path d="M34.51221,26.18164a.99959.99959,0,0,0-1.32129-.0708L28.68,29.68146l-9.41241-9.555a1,1,0,0,0-1.41065-.01416L4.54834,33.09619a1,1,0,0,0,1.39648,1.43164L18.541,22.23877l13.58447,13.79a.99992.99992,0,1,0,1.4248-1.40332l-3.45837-3.51074,3.64831-2.8877,5.97071,5.86572A.99993.99993,0,1,0,41.1123,32.666Z"/></g><text x="0" y="63" fill="#000000" font-size="5px" font-weight="bold" font-family="'Helvetica Neue', Helvetica, Arial-Unicode, Arial, Sans-serif">Created by BlackActurus</text><text x="0" y="68" fill="#000000" font-size="5px" font-weight="bold" font-family="'Helvetica Neue', Helvetica, Arial-Unicode, Arial, Sans-serif">from the Noun Project</text></svg>