<svg xmlns="http://www.w3.org/2000/svg" viewBox="0 0 48 60" x="0px" y="0px"><title>ui vol.1</title><g data-name="Layer 25"><path d="M44.26563,21.73877a.9986.9986,0,0,0-.668-.25586H27.68115c1.7666-2.4209,4.4585-7.12793,3.271-12.11523-1.478-6.21045-4.03809-6.78028-6.32129-6.82666-.15772-.00342-.31006-.00586-.45459-.01514a2.41477,2.41477,0,0,0-2.0708.95557C21.05518,4.79736,20.895,7.29,21.688,9.98633c.78674,2.67407-4.33429,8.94269-6.50549,10.6582h-8.037a.99965.99965,0,0,0-.72949.31592c-.10059.10693-9.91456,10.83594-.04151,22.79346a1,1,0,0,0,.771.36328h8.09216c.29138.3468.59271.69427.91712,1.043a.99985.99985,0,0,0,.73193.31884H40.13965a.99947.99947,0,0,0,.47168-.11816c.2456-.13135,2.40234-1.34277,2.5249-3.419a3.73857,3.73857,0,0,0-1.26074-2.86962,4.523,4.523,0,0,0,1.98584-2.85694,3.68664,3.68664,0,0,0-.93506-2.91992,3.878,3.878,0,0,0,1.60547-2.31348,4.08283,4.08283,0,0,0-.92774-3.28369,3.7714,3.7714,0,0,0,2.34766-2.20556C46.28906,24.30811,45.72168,23.04492,44.26563,21.73877ZM7.62305,42.11719C.12842,32.648,6.16211,24.37109,7.59961,22.64453h5.95447a16.9961,16.9961,0,0,0,.17541,19.47266ZM41.63818,26.2124a1.00055,1.00055,0,0,0-.51172,1.7085c.75879.72119,1.62549,1.76709,1.44776,2.65185-.16651.82764-1.23535,1.40137-1.62891,1.55127a.99992.99992,0,0,0-.30078,1.7002c.62744.53271,1.35156,1.32861,1.23926,2.0918-.14795,1.0083-1.63379,1.87109-2.14014,2.09277a1.0002,1.0002,0,0,0-.17627,1.73877c.74121.5166,1.61524,1.2959,1.57276,2.07226-.03858.70264-.82422,1.36036-1.27784,1.65918H17.32715c-9.63819-10.706-1.97852-20.10937-1.125-21.09082,1.938-1.458,8.64014-8.76806,7.40478-12.9663-.68164-2.3169-.4458-4.05713.062-4.69336.17529-.21924.31054-.21045.38281-.20655.1709.01074.35107.01465.53857.01856,1.48682.03027,3.17237.06445,4.41651,5.29,1.42431,5.98291-4.0962,11.90527-4.15186,11.96435a1.00034,1.00034,0,0,0,.72559,1.688H43.20166c.61182.60645.91748,1.14063.82666,1.46143C43.8667,25.5166,42.53662,26.04834,41.63818,26.2124Z"/></g><text x="0" y="63" fill="#000000" font-size="5px" font-weight="bold" font-family="'Helvetica Neue', Helvetica, Arial-Unicode, Arial, Sans-serif">Created by BlackActurus</text><text x="0" y="68" fill="#000000" font-size="5px" font-weight="bold" font-family="'Helvetica Neue', Helvetica, Arial-Unicode, Arial, Sans-serif">from the Noun Project</text></svg>