<svg xmlns="http://www.w3.org/2000/svg" viewBox="0 0 595.28 841.89"><defs><style>.cls-1{fill:#372771;}.cls-2{fill:#5e509d;}.cls-3{fill:#3a2a83;}.cls-4{fill:#3a3a8e;}.cls-5{fill:#5a4092;}.cls-6{fill:#3b3c8f;}.cls-7{fill:#3c4697;}.cls-8{fill:#d73a8b;}.cls-9{fill:#319dd1;}.cls-10{fill:#d7569a;}.cls-11{fill:#7ab8db;}.cls-12{fill:#fcc742;}</style></defs><g id="Laag_2" data-name="Laag 2"><path class="cls-1" d="M234.12,390.18s16.41,79.22,20.37,97.89,9.06,40.17,11.88,44.7S282.22,595,287.31,600.1s10,11.88,20.51,11.88,27.59,15.85,49.09,17.55,151.18-.92,151.18-.92a49.86,49.86,0,0,0,0-13.29c-1-6.24-24.59-7.62-30.27-8.32s-15.38-11.49-16.76-12a208.88,208.88,0,0,0-21.55-5.64C432.32,588,255.66,387,255.66,387Z"/><path class="cls-2" d="M142.89,437.78c1.86-.47,3.73,1,5.19,1.92,3.39,2.2,9,4.53,18.5,4.72,0,0-28.29,84.42,22.06,120.45,72.46,51.84,264.58-41.5,295.67,0,18.93,25.27-50.87,71.25-71.84,167.23C398.77,794.81,412.22,850,425,885.75q-16.67,10.46-27.82,6.91c-38.86-12.33-19.7-152.19-13.56-174.27,2.15-7.73,4.66-15.9,4.66-15.9s4.09-13.32,8.51-25.7c10.31-28.87,67-84.4,60-96.61-8-14-86.15,39-175.41,33.66-25.53-1.52-94-3.44-132.26-51a110.75,110.75,0,0,1-11.34-17.2h0c0-.06-8.67-18.17.92-99C139,444,139.83,438.56,142.89,437.78Z"/><path class="cls-3" d="M436.06,105.49s1.24-11.25-29.86-9.2S361,98.74,361,98.74l7.78,4.9s54.72-3.78,60.23-2.71S436.06,105.49,436.06,105.49Z"/><path class="cls-4" d="M182,286.07s-16.74,6-20.56,10.17-16.41,8.28-18.49,9.27c0,0-13.67,2.28-19.24,13.33,0,0-15.15,12.86-14.12,19.52s11.87,1.2,11.87,1.2-4.89,17.92-1.32,18.23a10.77,10.77,0,0,0,6.59-2s-2.54,6.35-.54,6.86,8.24,9.41,14.17-1.85,6.57-12.62,6.57-12.62l12.54-3.79s21.41,5.48,27,3.86a167,167,0,0,0,15.64-6.08l22.1-15,11.54-53S180.86,277.35,182,286.07Z"/><path class="cls-3" d="M109.57,338.36s15.62-5.14,17.72-11l3.11-5s-1,7.36,8,4.19a32.75,32.75,0,0,0,14.07-9.79s-1.14,2.07,8.8.09,12.88-2.76,16.89-5.38,8.92-8.67,8.92-8.67,9.55,4.27,11.57,1.13a40.21,40.21,0,0,0,3.55-7.92s4.23,10.82,3.07,14.18,4.29-.12,6.88-3.11,17.63-5.83,17.63-5.83l5.9-27.1s-57.38,4.67-53.75,11.9l-16.13,7s-7,3.2-7.93,5.81-20.21,8.09-21,8.46-11.51,6.12-13.19,11.47C123.69,318.84,107.46,332.34,109.57,338.36Z"/><path class="cls-1" d="M126.71,355.82s8-12.4,13-17.06"/><path class="cls-5" d="M387.78,426.38s-58.62-3.81-73.39-21,0-116.76,0-116.76,40.86-101.2,43.13-102,13.86-1.42,13.86-1.42,6.79,12.17,10.18,19.24c0,0,13.3,27.72,9.34,84S387.78,426.38,387.78,426.38Z"/><path class="cls-2" d="M387.78,426.38s34.57-3.87,48.7-3,16.4-1.92,16.57-4.36,2.26-44.07,4.49-63.36,3.46-31.91,3-54.18S463.23,274,464,271.3s3.71-31.17,0-40.82-9.89-26-9.89-26H377.44Z"/><path class="cls-5" d="M438.38,174.05s17.9,4,15.69,30.46H371.33L355.12,186.6s-3.92-3.45-1.89-4.89,83.12-1.62,84.59-2.16S438.38,174.05,438.38,174.05Z"/><path class="cls-2" d="M352,101.38l77.76-2.18s6.7-.6,7.09,4,1.88,71.57,1.88,71.57,1.38,5.42-.54,5.55S358,182.11,358,182.11Z"/><path class="cls-6" d="M275.65,74.33s.18-9.31,36.13-8.23S379.93,90,375.9,132.37c0,0,11.27,32.46-10.73,50.17,0,0,27.59,28.43,19.82,81.63,0,0,4.52,28.67,1.38,46.6s-11.81,43.49-8.93,63.29,9.49,17.29,5.61,85.82c0,0,1.94,17.28,1.55,30.88s-4.66,24.46-3.11,28.73,19.42,13.21,17.09,36.89c0,0,12.81-4.27,12,10.49,0,0,10,3.49,11,7.76S439,582.4,439,582.4s.77,13.59,1.94,14,13.2,3.5,17.08,8.54,18.25,10.88,18.25,10.88,31.07,8.93,31.85,12.81,6.6,27.18-10.1,69.9c0,0-5.05,7.77-7.77,12,0,0,0,7-5.43,17.86s-10.1,29.12-13.59,31.45-18.25-3.88-21-26.79-3.5-41.16-3.5-41.16-7.3.18-8.94,2-7.85-11.14-7.85-11.14-4.93-6.39-8.58-6.39-13.5-9.49-14.6-10.4-4.56-3.83-5.29-3.83-11.87-.73-13.51-1.83-3.28-4.74-3.28-4.74-6.58.54-7.31-1.1a21.31,21.31,0,0,1-1.09-4.74s-8.4.36-10.22,1.09-9.74-10-12.53-9.75-10.12-.26-11.13-2.28-3.54-7.59-5.31-7.59-3-5.31-3-6.07-5.79-2-6.56-2.79-1.54-4.55-1.54-4.55-6.32-4.3-7.59-5.82-4.8-6.58-5.82-9.87-6.07-14.17-7.33-20-4.3-11.13-6.84-16.19-2.27-23.53-5.31-26.06-9.11-28.09-12.9-36.19-15.44-51.87-15.69-56.42-28-174.25-21.61-207.62c0,0,4.23-2.57,4.23-4.39S246,222,246.87,220.88s1.14-4.33,1.14-7.3a99,99,0,0,1,1.14-13.46l.55-2.28Z"/><polygon class="cls-2" points="274.83 318.17 272.33 243.73 237.29 242.16 235.73 321.3 274.83 318.17"/><polygon class="cls-5" points="225.72 246.86 259.19 246.86 261.08 319.27 247.02 320.4 227.6 321.3 225.72 246.86"/><path class="cls-2" d="M249.49,246.86s-10,46.29-9.07,52.55-2.59,16.57-6.3,18.14a32,32,0,0,0-6.52,3.75h14.32s4.52-5.74,3.82-12.58S251.06,296,251.06,296Z"/><path class="cls-2" d="M235.73,321.3s3.44,7.51,0,9.07-10,4.38-10,4.38h29.56L267,326V318.8Z"/><path class="cls-2" d="M266.1,326.06s11.32-2.34,14.88,0,12.62,13.36,12.62,18S260,389.51,260,389.51l-6-54.1Z"/><path class="cls-7" d="M248,213.58s130.15-1.35,132.88-2.58c0,0,5.76,17.95,5.42,31.16,0,0-140.16,1-143.45-2.51l4.23-4.39a47.06,47.06,0,0,1-.22-14.38C248,213.58,246.87,227,248,213.58Z"/><path class="cls-1" d="M248.31,207.35s20.58,3.71,37.78-8.28,32.57-29.49,37.79-37.79,12.12-34.1,3.61-52.23S306.9,70.45,295.88,66.4c0,0-15.92-.37-20.23,7.93,0,0,33.18,44.55,25.8,68.21s-51.75,55.3-51.75,55.3Z"/><ellipse class="cls-8" cx="399.74" cy="161.32" rx="11.37" ry="13.59"/><path class="cls-5" d="M465.71,251.65H433V272l30.62.27a18,18,0,0,0,.83-4.23C464.81,265.08,465.71,251.65,465.71,251.65Z"/><polygon class="cls-5" points="389.47 314.1 414.41 314.1 414.41 297.89 390.29 297.89 389.47 314.1"/><polygon class="cls-5" points="455.38 380.83 419.82 380.83 419.82 396.74 454.33 396.74 455.38 380.83"/><path class="cls-3" d="M434.79,659.64s20.56-20.56,24.67-38.83"/><path class="cls-3" d="M327.49,600.26s51.07-22.39,60-36.55"/><path class="cls-3" d="M349.83,614s42.61-37.43,45.68-47.5"/><path class="cls-3" d="M291.36,480.58s42.48-15.53,77.2-8.22"/><path class="cls-3" d="M285,451.35s37.91-9.14,61.66-8.68"/><path class="cls-3" d="M307.82,459.11s26.1-5,63.52-3.65"/><path class="cls-3" d="M280,267.13s9.39,21.33,14.68,23"/><path class="cls-3" d="M278.38,281.73s13.69,16.53,16.34,24.26"/><path class="cls-3" d="M254,219.84a291.53,291.53,0,0,0,35.94,0"/><path class="cls-3" d="M254,228.58s8.18,1.66,26.07,0"/><path class="cls-9" d="M249.7,197.84s47-7.16,65.78-47.88-39.83-75.63-39.83-75.63a37.84,37.84,0,0,1-5.81,5.37c-3.58,2.68-20.14,5.82-34.91,28.64S217.48,165.17,249.7,197.84Z"/><ellipse class="cls-10" cx="402.63" cy="161.32" rx="8.47" ry="12.73"/><path class="cls-3" d="M255.28,334.75A17.94,17.94,0,0,0,267,326"/><path class="cls-3" d="M267,325s-20.31,1.81-25.09,1.32"/><polygon class="cls-3" points="225.72 246.86 237.29 242.16 272.33 243.73 259.19 246.86 225.72 246.86"/><path class="cls-11" d="M259.44,91.61s-30,42.36-18.54,80c0,0-9.07-22.92-7.4-37S259.44,91.61,259.44,91.61Z"/><path class="cls-5" d="M225.72,334.75s-.4,57,8.4,59.66l27-5.12-5.8-54.54Z"/><path class="cls-1" d="M170.35,320.34s-5.44,12.75,5.74,18"/><path class="cls-1" d="M368.56,368.89s-26.58-4.68-52.26.86"/><path class="cls-3" d="M454,195.29s-58.4,0-59.84,1.07"/><path class="cls-2" d="M171,292.93s-27.38,1-35,8.93c0,0-.43,8.11.81,9s5.94.41,5.11,3.5-4.57,25.93-3.72,26.52,8.35-.41,9.12,1.52,2.79,17.12,4.3,20.78,4.11,19.77,0,26.56-15.44,22.29-2.52,28.69c0,0,18.91,7.36,22.1,4.48s9.42-7.88,5.64-18.69.87-30.87,1.07-34.23,1.3-20.79-.9-23.69C177,346.26,179.59,305.87,171,292.93Z"/><path class="cls-2" d="M161.37,293.72S152.2,269.41,132,259.87c0,0-1.37-3.15-1.81-4s-9.44-6.47-9.44-6.47-8.83,6.28-7.54,13.22l9.44,6.46,4.91-.17s19.68,8.19,22.37,25.92Z"/><path class="cls-5" d="M120.76,249.42s-4.46-2.49-5.7-3.07c0,0-9.11,7.48-7,13.44l5.18,2.85S112.53,255,120.76,249.42Z"/><path class="cls-11" d="M114.26,247.05,85.92,231.46s-7.94,2.66-5.55,10.12l27.39,16.84Z"/><path class="cls-12" d="M141.13,318.09s3-.44,3.59,0,7.43,11.11.47,20l-7.07.57Z"/><path class="cls-1" d="M165.55,299.19l-8.07,2s13.78,50.71,9.62,87.73c0,0-10,10.66-20.27,8.68a26.81,26.81,0,0,0-3,6.76s20.76,14.48,33.41,10.51a16,16,0,0,0-.48-10.7c-2.32-5.73-1.4-14.32-1.4-14.32s3.2-24,2.92-31.73.07-9.37-1.35-11.87-2.76-4.5-2.76-4.5Z"/><path class="cls-2" d="M168,446.29s-17.22-.73-27.25-9c0,0-.65-1.52,1-4.14,0,0-2.63-5.35,1-9s4.76-3.21,4.76-3.21l1.6-2.62s12.28,4.93,18.48,5.11c0,0-.81,2.19.08,2.63s6.81,10.27-.07,14.77C167.56,440.9,170.21,444.25,168,446.29Z"/><path class="cls-3" d="M293.41,268.24s40.12-.19,75,37.93c0,0-14.73,38-52.14,63.58a46.65,46.65,0,0,1-12.49,9.16c-7.17,3.43-49.69-.57-53.86.47s-10.64,8.1-24.41,1.8c0,0-4.8,5.46-21.84,2.47,0,0-9.25.85-10,2.26,0,0-35.89,15.27-41.82,21.3,0,0-9.36,2.52-6.45-5.13s14-11.12,14-11.12,6.3-6.23,7.16-9.07-13,4.71-14,6.82-7.77,11.17-12.86,13.74-7.38-1.12-4.49-5.71,6.34-12.76,8.71-14.35,10.3-9.8,12-10.31c0,0-5.81,1.16-9.67,4.19S138.51,391,132.94,391s-8.29-5.51-6.26-8.51,10.1-13,12.81-14.19a89.78,89.78,0,0,0,8.89-5.44s-9.84,3.1-11.58,6.24-9.24,13.66-12.41,11.94-5.07-5.41-3.8-7.38,7.89-11.93,12.46-13.56a33.5,33.5,0,0,0,4.95-2.35c3.07-1.74,5.65-3.6,5.65-3.6l-6.77,2.29s8.26-10.71,14.09-13.91c0,0,14.9-11.62,27.7-13.3,0,0,7.34-4.85,9.56-3.65,0,0,2.74-5.07,4.28-5.26s29-6.45,29.25-7.55,5-3.27,7.79-1.93c0,0,3-4.34,11.85-6.3s25.87-.76,26.34-.1c0,0,4.87-10.9,6.7-12.78s3.68-1.49,4.46-2.92,2.37-8.55,5.65-7.8,5.9-.3,6.7-2.53S293.41,268.24,293.41,268.24Z"/><path class="cls-3" d="M369,209.05s-42.2-15.8-58.63,8.27-17.78,43.06-17.78,43.06l.8,7.86s40.85.42,75,37.93a13.63,13.63,0,0,1,5.32-5c3.95-2.27,18.62-12.44,23-29S400.48,222.3,369,209.05Z"/><path class="cls-1" d="M294.72,317.49s24.44,29.62,16.73,49.64"/><path class="cls-1" d="M289.56,327s16.72,25.67,12.11,41.87"/><path class="cls-6" d="M229.55,310.86s5.11,13.89,13.2,19.09,41.06-2.93,42.36-5.34-7.86-12.26-17.37-20.15C267.74,304.46,237.25,300.16,229.55,310.86Z"/><path class="cls-1" d="M180.73,342.92s20.9,27.19,13,43"/><path class="cls-1" d="M192.51,320.34s19,21.75,17.46,30.85"/><path class="cls-1" d="M215.12,315s22.15,25.48,14.53,46.84"/><path class="cls-1" d="M334.26,302.44s-22.57-20.73-38.09-24.39"/><path class="cls-1" d="M292.61,260.38s43.41-.92,81.15,40.76l-5.32,5s-29-34.19-75-37.93C293.41,268.24,291.71,265.91,292.61,260.38Z"/></g></svg>