<svg xmlns="http://www.w3.org/2000/svg" viewBox="0 0 595.28 595.28"><defs><style>.cls-1{fill:#fcc742;}.cls-2{fill:#fbba39;}</style></defs><g id="Laag_2" data-name="Laag 2"><path class="cls-1" d="M268.45,288.73s-20.38,17.32-25.62,33.11"/><path class="cls-1" d="M276,277.64s-21.54,12.62-33.19,22.17"/><path class="cls-1" d="M222.46,328.35s-13.4,12.82-13.4,32.3"/><path class="cls-2" d="M293.89,274s5.09-10.27,42-7"/><path class="cls-2" d="M291.63,276.21s88,34.9,106.08,49.91"/><path class="cls-2" d="M278,285.84S306.3,331.43,305.71,350"/><path class="cls-1" d="M282.9,278.73s42.26,34.52,53.49,49.62"/><path class="cls-1" d="M280.71,277.46s46.37-72.31,85.19-100.25"/><path class="cls-2" d="M320.58,253.79s28.22-40.75,85.86-68.7"/><line class="cls-1" x1="357.91" y1="253.79" x2="440.1" y2="215.76"/><path class="cls-2" d="M378.49,270.22s90.12-43.79,109.69-45.54"/><path class="cls-1" d="M422.16,155.4s40.5-20.08,55.47-17.32"/><path class="cls-1" d="M446.87,227.34s29.89-30,41.31-30"/><path class="cls-2" d="M255.64,264.86s-114.7-2.84-117,16.63"/><path class="cls-2" d="M228.28,311.07s-76.86,25.45-78,52.5"/><path class="cls-1" d="M268.45,337.32s14.34,22.44,14.45,29.42"/><path class="cls-2" d="M244.87,355.8s22.42,31,21.25,57.06"/><path class="cls-1" d="M261.47,251.31s-51.74-31.87-60.89-26.63"/><path class="cls-1" d="M357.91,288.73s49.7-3.86,64.25-1.44"/><path class="cls-2" d="M309.65,201.85s38.51-57.38,43.43-58.59"/><path class="cls-2" d="M255.52,224.1s-61.7-55.82-66.25-51.54"/><path class="cls-1" d="M184.72,251.31s-51.87-20.46-53.09-13.6"/><path class="cls-1" d="M215.76,287.29s-65.36,30.83-65.5,41.06"/><path class="cls-1" d="M231,372.16s.86,46.71,2.84,52.39"/><path class="cls-1" d="M197.13,372.16S171.88,410.27,171.88,418"/><line class="cls-1" x1="319.3" y1="351.04" x2="346.76" y2="399.12"/><path class="cls-1" d="M287.08,398.3s21.87,25.07,22.57,33.45"/><path class="cls-1" d="M270.49,269.24S237.82,282,236.77,286"/><path class="cls-1" d="M357.91,264.71s29.4-10,35.6-10.92"/><path class="cls-1" d="M388.42,301.16s21.33.71,27.65,6.66"/><path class="cls-1" d="M309.65,171.9s11.27-33.37,13.66-34.08"/><path class="cls-1" d="M255.52,201.85s-21.4-28.92-27.24-23.85"/><path class="cls-2" d="M437.08,359.08s11-3.18,33.56,26.27"/><path class="cls-1" d="M527.26,357.32s21.32.71,27.64,6.66"/><path class="cls-1" d="M425.41,334.72S456,339.81,461.93,342"/><path class="cls-2" d="M502.48,154.28s5.09-10.27,42-7.05"/></g></svg>