<?xml version="1.0" encoding="utf-8"?>
<!-- Generator: Adobe Illustrator 25.2.1, SVG Export Plug-In . SVG Version: 6.00 Build 0)  -->
<svg version="1.1" xmlns="http://www.w3.org/2000/svg" xmlns:xlink="http://www.w3.org/1999/xlink" x="0px" y="0px"
	 viewBox="0 0 781.7 640.5" style="enable-background:new 0 0 781.7 640.5;" xml:space="preserve">
<style type="text/css">
	.st0{fill:#3A3C8E;}
	.st1{fill:#3A2A82;}
	.st2{fill:#372771;}
	.st3{fill:#F2F2F2;}
	.st4{fill:#D65599;}
	.st5{fill:#FFFFFF;}
	.st6{fill:#E6E6E6;}
	.st7{fill:#2F2E41;}
	.st8{fill:#FFB8B8;}
	.st9{fill:#319CD0;}
	.st10{fill:#5E509C;}
	.st11{fill:#FBC641;}
	.st12{fill:#594091;}
	.st13{fill:#3C4696;}
	.st14{fill:#B63289;}
	.st15{fill:#D6398A;}
	.st16{fill:none;}
	.st17{fill:none;stroke:#1D1D1B;stroke-miterlimit:10;}
	.st18{fill:#FAB938;}
	.st19{fill:#7AB7DB;}
	.st20{fill:#3A3A8D;}
	.st21{fill:#3A2B81;}
	.st22{fill:#3F3D56;}
	.st23{fill:#6C63FF;}
	.st24{fill:#FF6584;}
</style>
<g id="Aangepast">
	<path class="st0" d="M114.7,546.2c49.3-25.6,151.3-68.5,280.1-68.5s230.7,42.9,280.1,68.5c48,24.9,86.7,54.3,104.9,78.2
		c6.6-9-3.1-169.6-30-233.3C668.9,199.7,481.3,75.3,273.6,75.5c-73-0.2-143,28.8-194.5,80.6c-1.1,1.1-2.2,2.2-3.2,3.3
		C18.9,218.2-7.8,300.2,2,381.6c6.9,58,24,179.2,48.1,204.9C70.4,571.3,92.1,557.8,114.7,546.2z"/>
	<path class="st1" d="M264,346.7c-2.8-5.3-0.7-11.7,4.5-14.5c0.6-0.3,1.1-0.5,1.7-0.7L312,243l19.1,13.4L284,339.1
		c1.4,5.8-2.1,11.6-7.9,13.1C271.3,353.4,266.3,351.2,264,346.7L264,346.7z"/>
	<path class="st2" d="M317.2,216.9c0,0-12.6,20.8-14.5,30.2c0,0-4.8,4.7-2.2,20.2l6.9,30.3l44.9-11.3c0,0,21.4-32.9,30.7-61.3
		c0,0-3.2-1.6-5.7-4.3L317.2,216.9z"/>
	<ellipse class="st3" cx="400.5" cy="500.4" rx="82" ry="17.1"/>
	<path class="st0" d="M591,114.5c-55.7,0-99.4-10.1-99.4-23c0-7.7,15.5-14.6,42.5-18.9c0.4-0.1,0.8,0.2,0.9,0.6
		c0.1,0.4-0.2,0.8-0.6,0.9l0,0c-25.4,4-41.2,10.7-41.2,17.5c0,11.7,44.8,21.5,97.9,21.5c53.1,0,97.9-9.8,97.9-21.5
		c0-6.8-15.9-13.5-41.5-17.5c-0.4-0.1-0.7-0.4-0.6-0.8c0.1-0.4,0.4-0.7,0.8-0.6l0,0c27.1,4.3,42.7,11.2,42.7,19
		C690.4,104.5,646.7,114.5,591,114.5z"/>
	<path class="st4" d="M541.7,118.9c15.9,27.2,50.9,36.4,78.1,20.5c8.6-5,15.7-12.2,20.7-20.8C607.5,120.5,574.6,120.6,541.7,118.9z"
		/>
	<path class="st4" d="M645.9,102.8c8.7-30.3-8.9-61.9-39.3-70.6c-30.3-8.7-61.9,8.9-70.6,39.3c-3,10.4-2.9,21.5,0.2,31.9
		C572.7,107.9,609.5,107.7,645.9,102.8z"/>
	<circle class="st5" cx="604.3" cy="55.2" r="6.7"/>
	<circle class="st5" cx="569.5" cy="82.6" r="11.1"/>
	<circle class="st5" cx="591" cy="135.3" r="6.7"/>
	<ellipse class="st6" cx="402.8" cy="500.2" rx="55.6" ry="9.2"/>
	<ellipse class="st3" cx="217.5" cy="587.4" rx="93.6" ry="19.5"/>
	<ellipse class="st3" cx="598.5" cy="611.4" rx="139.5" ry="29.1"/>
	<ellipse class="st6" cx="217.2" cy="586.7" rx="71.7" ry="11.9"/>
	<ellipse class="st6" cx="598.6" cy="609.5" rx="122.6" ry="20.3"/>
	<circle class="st5" cx="57.8" cy="319" r="7"/>
	<circle class="st5" cx="547.8" cy="421" r="7"/>
	<path class="st7" d="M308.7,197.1c0,17.7,16.3,15,36.5,15s36.5,2.7,36.5-15s-8-49-36.5-49C315.7,148.1,308.7,179.4,308.7,197.1z"/>
	<polygon class="st8" points="415.8,517.7 404.3,521.9 382.7,479.4 399.7,473.2 	"/>
	<path class="st1" d="M394.9,521.6l22.2-8.1l0,0l5.1,14l0,0L386,540.7l0,0l0,0C383.2,532.9,387.2,524.4,394.9,521.6z"/>
	<circle class="st8" cx="343.7" cy="186.6" r="24.6"/>
	<polygon class="st8" points="336.7,529.3 324.4,529.3 318.6,482 336.7,482 	"/>
	<path class="st1" d="M315.7,525.8h23.6l0,0v14.9l0,0h-38.5l0,0l0,0C300.8,532.4,307.5,525.8,315.7,525.8z"/>
	<path class="st1" d="M425.1,188.7c0,0.6,0.1,1.1,0.3,1.6L392.1,227l-11.8-2.5l-6.2,17.3l20.4,6.5c3.4,1.1,7.1-0.2,9.1-3.2
		l31.5-46.8c5.8,0.3,10.7-4.2,11-10s-4.2-10.7-10-11s-10.7,4.2-11,10C425.1,187.9,425.1,188.3,425.1,188.7L425.1,188.7z"/>
	<path class="st7" d="M373.7,185.1L373.7,185.1H364l-4.3-12l-0.9,12h-4.6l-2.5-7l-0.5,7h-34.5l0,0c0-14.4,11.6-26,26-26h5
		C362.1,159.1,373.7,170.7,373.7,185.1z"/>
	<path class="st5" d="M114.3,442h-3.5v-3.5c0-2.5-2-4.5-4.5-4.5s-4.5,2-4.5,4.5v3.5h-3.5c-2.5,0-4.5,2-4.5,4.5s2,4.5,4.5,4.5h3.5
		v3.5c0,2.5,2,4.5,4.5,4.5s4.5-2,4.5-4.5V451h3.5c2.5,0,4.5-2,4.5-4.5S116.8,442,114.3,442z"/>
	<path class="st4" d="M629.4,356.2h-1.8v-1.8c0-1.3-1.1-2.3-2.3-2.3c-1.3,0-2.3,1-2.3,2.3v1.8h-1.8c-1.3,0-2.3,1.1-2.3,2.3
		c0,1.3,1,2.3,2.3,2.3h1.8v1.8c0,1.3,1.1,2.3,2.3,2.3c1.3,0,2.3-1,2.3-2.3v-1.8h1.8c1.3,0,2.3-1,2.3-2.3
		C631.8,357.2,630.7,356.2,629.4,356.2C629.5,356.2,629.4,356.2,629.4,356.2z"/>
	<path class="st9" d="M98.4,235.2h-1.8v-1.8c0-1.3-1-2.3-2.3-2.3s-2.3,1-2.3,2.3l0,0v1.8h-1.8c-1.3,0-2.3,1-2.3,2.3s1,2.3,2.3,2.3
		l0,0H92v1.8c0,1.3,1,2.3,2.3,2.3s2.3-1,2.3-2.3l0,0v-1.8h1.8c1.3,0,2.3-1,2.3-2.3C100.8,236.2,99.7,235.2,98.4,235.2
		C98.5,235.2,98.4,235.2,98.4,235.2z"/>
	<path class="st5" d="M233.4,235.2h-1.8v-1.8c0-1.3-1-2.3-2.3-2.3s-2.3,1-2.3,2.3l0,0v1.8h-1.8c-1.3,0-2.3,1-2.3,2.3s1,2.3,2.3,2.3
		l0,0h1.8v1.8c0,1.3,1,2.3,2.3,2.3s2.3-1,2.3-2.3l0,0v-1.8h1.8c1.3,0,2.3-1,2.3-2.3C235.8,236.2,234.7,235.2,233.4,235.2
		C233.5,235.2,233.4,235.2,233.4,235.2z"/>
	<path class="st5" d="M698.4,475.2h-1.8v-1.8c0-1.3-1.1-2.3-2.3-2.3c-1.3,0-2.3,1-2.3,2.3v1.8h-1.8c-1.3,0-2.3,1.1-2.3,2.3
		c0,1.3,1,2.3,2.3,2.3h1.8v1.8c0,1.3,1.1,2.3,2.3,2.3c1.3,0,2.3-1,2.3-2.3v-1.8h1.8c1.3,0,2.3-1.1,2.3-2.3
		C700.8,476.2,699.7,475.2,698.4,475.2z"/>
	<path class="st5" d="M488.4,280.2h-1.8v-1.8c0-1.3-1.1-2.3-2.3-2.3c-1.3,0-2.3,1-2.3,2.3v1.8h-1.8c-1.3,0-2.3,1.1-2.3,2.3
		c0,1.3,1,2.3,2.3,2.3h1.8v1.8c0,1.3,1.1,2.3,2.3,2.3c1.3,0,2.3-1,2.3-2.3v-1.8h1.8c1.3,0,2.3-1,2.3-2.3
		C490.8,281.2,489.7,280.2,488.4,280.2C488.5,280.2,488.4,280.2,488.4,280.2z"/>
	<path class="st5" d="M167.4,330.2h-1.8v-1.8c0-1.3-1-2.3-2.3-2.3s-2.3,1-2.3,2.3l0,0v1.8h-1.8c-1.3,0-2.3,1-2.3,2.3s1,2.3,2.3,2.3
		l0,0h1.8v1.8c0,1.3,1,2.3,2.3,2.3s2.3-1,2.3-2.3l0,0v-1.8h1.8c1.3,0,2.3-1,2.3-2.3C169.8,331.2,168.7,330.2,167.4,330.2
		C167.5,330.2,167.4,330.2,167.4,330.2z"/>
	<path class="st5" d="M173.4,164.2h-1.8v-1.8c0-1.3-1-2.3-2.3-2.3s-2.3,1-2.3,2.3l0,0v1.8h-1.8c-1.3,0-2.3,1-2.3,2.3s1,2.3,2.3,2.3
		l0,0h1.8v1.8c0,1.3,1,2.3,2.3,2.3s2.3-1,2.3-2.3l0,0v-1.8h1.8c1.3,0,2.3-1,2.3-2.3C175.8,165.2,174.7,164.2,173.4,164.2
		C173.5,164.2,173.4,164.2,173.4,164.2z"/>
	<circle class="st0" cx="-330.1" cy="78.6" r="28.2"/>
	<circle class="st10" cx="-292.2" cy="78.6" r="28.2"/>
	<circle class="st4" cx="-254.2" cy="78.6" r="28.2"/>
	<circle class="st9" cx="-216.3" cy="78.6" r="28.2"/>
	<circle class="st11" cx="-178.8" cy="78.6" r="28.2"/>
	<path class="st12" d="M-585.4,201.5c0,0,96.3,8,125.3,0.2c29-7.7,43,239.9,43,239.9s-71.8,18.8-112.1,18.9
		C-529.2,460.5-592.2,397-585.4,201.5z"/>
	<path class="st10" d="M-585.4,201.5c0,0-11.1,4.2-29.6,3.4c0,0-2.2,34-0.4,39.4c0,0-4.2,4.3-8,3.5c0,0-1,45.5,0.7,48.1
		s10.9,2.1,10.9,2.1s4,91.7,22.1,105.7c0,0-4.8,33.2,15.7,35c0,0,7.4,22.9,12.4,24.5l32.4-2.7L-585.4,201.5z"/>
	<path class="st10" d="M-595.3,205.7c0,0,2.2-78.2,56.4-65.5l-7.3,64.9L-595.3,205.7z"/>
	<path class="st12" d="M-540,140.1c0,0,55.1-13.8,128.8,7.1l-15,76.4l-121.2-18.7L-540,140.1z"/>
	<path class="st12" d="M-572.3,145.7c0,0,17.1-17.1,103.8-11.6l57.1,14.5c0,0-60.7-20.2-129.9-7.6
		C-541.4,141-557.2,135.6-572.3,145.7z"/>
	<path class="st12" d="M-596.1,223.9l-20.3,3l1.9,12.7l19.1-2.7c0,0,0.2-0.8,0.1-2.7S-596.1,223.9-596.1,223.9z"/>
	<polygon class="st12" points="-607,340.1 -591.4,338.5 -592.4,328.3 -607.5,329.9 	"/>
	<polygon class="st12" points="-562.3,411.9 -584.5,415.1 -583.1,425 -561.6,421.9 	"/>
	<path class="st0" d="M-530.5,275.3c0,0-25.8,213.4,121.7,222.3c0,0-10.8,47.5,30.1,69.3c0,0-5.1,23.7,5.4,32c0,0,32.2,2.1,51.5-9.1
		c0,0,2.1-7.9-3.1-12.2s-20.4-1.5-20.4-1.5s12.2-64.2-18.1-121.6c0,0,41.9,9.5,52.4,5.6c0,0,59.8,50,87.1,51.5c0,0,5.8,9.6,15.9,12
		c0,0,24.2-2.1,46.1-31.3c0,0-1.6-7-8.6-8s-28.1,0.3-28.1,0.3s-0.2-3.6-8.5-5.6c0,0-6.7-22.4-28.8-34.3s-34.3-29-35.8-30.6
		s-10.8-10.6-41.3-13.9c0,0-53.2-7.2-64.8-9.4c-11.6-2.3-29.3-34-30.5-38.9c-1.1-4.9,0.6-53.6-19.7-74.9
		C-428.1,277-470.9,280.9-530.5,275.3z"/>
	<path class="st1" d="M-428.1,277c0,0,43.8-11.1,32.5,38.5c0,0,21.5,9.9,57,66.7l8.7,15.6c0,0-54.1-2.5-59.5-7.1
		s-30.9-44.9-29.4-54.5C-417.3,326.5-428.1,277-428.1,277z"/>
	<path class="st13" d="M-364.6,477c0,0-22.3,10.5-29,4.4s-20-22.9-20.4-26s1.7-12.5,4.5-15s17.6-8.9,24.1-4.6s24.1,20.1,23.9,32.5
		C-361.4,468.3-360.5,473.5-364.6,477z"/>
	<path class="st2" d="M-399.5,468.4c0,0,11.3-4.6,31.5-7.7"/>
	<path class="st2" d="M-407.6,455.2c0,0,9.4-8,27.6-10.3"/>
	<path class="st2" d="M-373.3,598.9c0,0,21.2-11.1,51.9-12.9l-0.4,3.8C-321.8,589.8-336.3,600.2-373.3,598.9z"/>
	<path class="st2" d="M-208.1,523.7c0,0,28.4-23.7,45.1-33.9l1,2.5C-162,492.3-181.5,520.6-208.1,523.7z"/>
	<path class="st2" d="M-281.7,472.1c0,0,8-21.3,21.7-39.3"/>
	<path class="st2" d="M-272.7,478.2c0,0,2.1-11.9,19.3-36.5"/>
	<path class="st0" d="M-551.1,284.3c0,0,10.4-13.9,20.6-8.9l13.3,5.1l-9.7,8.6L-551.1,284.3z"/>
	<path class="st2" d="M-396.2,318.8c0,0-14.7,0.1-17.9,3.6"/>
	<polygon class="st4" points="-467.1,389.8 -404,402.2 -354.9,379.1 -409.3,368.4 	"/>
	
		<rect x="-439.8" y="367.3" transform="matrix(0.1929 -0.9812 0.9812 0.1929 -744.0551 -105.5949)" class="st14" width="7.2" height="64.3"/>
	<polygon class="st4" points="-405.4,409.3 -313.1,400.2 -276.4,331 -368.6,333.1 -404,402.2 	"/>
	<polygon class="st14" points="-283.6,325 -371.9,328.8 -409.2,401.2 -404,402.2 -368.6,333.1 -276.4,331 	"/>
	<path class="st0" d="M-534.1,274.2c0,0,6.1-4.7,10.4-16c0,0-25.5-27.3-4.1-72.7s68.5-46.9,68.5-46.9s75-12.6,63.9,87.7
		c0,0-9.3,35.4-31.2,42.6l-1.6,8.1C-428.1,277-501.6,290.8-534.1,274.2z"/>
	
		<ellipse transform="matrix(0.7071 -0.7071 0.7071 0.7071 -281.4769 -262.7452)" class="st2" cx="-457.9" cy="208.4" rx="63.2" ry="63.2"/>
	<circle class="st9" cx="-453.2" cy="206.9" r="56.9"/>
	
		<ellipse transform="matrix(0.1929 -0.9812 0.9812 0.1929 -630.9312 -412.8513)" class="st15" cx="-566.4" cy="177.1" rx="14.1" ry="11.8"/>
	
		<ellipse transform="matrix(0.1929 -0.9812 0.9812 0.1929 -632.705 -416.2528)" class="st4" cx="-569.4" cy="176.5" rx="13.2" ry="8.8"/>
	<path class="st12" d="M-478.1,446c0,0,4-48,54.9-33.7"/>
	<line class="st16" x1="-498.8" y1="335.3" x2="-453.3" y2="333.6"/>
	<path class="st1" d="M-511.3,341.5c0,0,17.4-46.6-16.4-59.5c-33.9-12.9-58.7,43.9-29.8,82.3c0,0-9,17.9,12.9,22.8
		c0,0,40.7,37.4,76.6-4.4c0,0,5.6-0.2,8.9-2.3c0,0,9.2-5.7,7.9-6.9c0,0,11.3,1,13.2,2.6c1.9,1.6,10.7,10.8,16.6,10.7
		c0,0,2-0.2,2.1-1.3c0,0,6.4,2,7.4-3.3c0,0,4.2-1.8,1.5-7.6l-6.2-9.1c0,0,7.3-0.6,9.8-0.5s3.8-6.4-2.2-6.4c-6-0.1-16.3-1.9-22.8-3.8
		s-22.9-6.7-26.6-5.2c-3.6,1.5-9.2,3.5-9.4,9.3c0,0-6.4-2.4-7.8,1.1C-475.8,360-505.2,358.6-511.3,341.5z"/>
	<path class="st17" d="M-434.7,371.6c0,0,8.6,5.4,15.3,13.9"/>
	<path class="st17" d="M-425.1,368.5c0,0,8.3,4.5,13.1,13.7"/>
	<path class="st2" d="M-555.9,358.7c0,0,8-17.2,39.5-17.7"/>
	<path class="st2" d="M-550.2,375.8c0,0,17.8-26.4,32-25.6"/>
	<path class="st2" d="M-537.9,385.8c0,0,6.3-27.1,22-27.8"/>
	<path class="st13" d="M-506.4,289.8c0,0,6.7,10.1,2.8,22.6c0,0,59.6-2.7,78.6,0.3l-5.6-23C-430.6,289.7-458.6,293.2-506.4,289.8z"
		/>
	<g>
		<path class="st2" d="M-520.4,260.6c6.6,3.3,13.5,5.8,20.5,8s14.1,4,21.4,5.3c7.2,1.3,14.5,2.3,21.8,2.8c1.8,0.1,3.7,0.4,5.5,0.4
			l5.5,0.2c1.8,0.1,3.7,0.1,5.5,0.1h5.5v0.1c-3.7,0.2-7.4,0.5-11,0.5c-3.7,0-7.4,0-11.1-0.3c-7.4-0.4-14.7-1.6-21.9-3
			c-7.2-1.4-14.4-3.3-21.4-5.6C-507,266.7-513.9,264-520.4,260.6L-520.4,260.6z"/>
	</g>
	<g>
		<path class="st2" d="M-522.3,270.2c6.8,2.4,13.7,4.4,20.6,6.2c6.9,1.8,13.9,3.5,21,4.8s14.2,2.2,21.3,2.8
			c7.1,0.6,14.3,0.7,21.5,0.1v0.1c-7.1,1.2-14.4,1.2-21.5,0.8c-7.2-0.5-14.3-1.7-21.4-3c-7.1-1.4-14-3.1-21-5.1
			S-515.6,272.8-522.3,270.2L-522.3,270.2z"/>
	</g>
	<path class="st10" d="M-443.5,296l-5.8,3.6c0,0,6.4,45.3,5.6,48.5l33.9-2.2l2.8-3.7L-443.5,296z"/>
	<path class="st12" d="M-443.5,296c0,0,6.3,41.2,5.2,49c0,0,27.8-3.3,31.2-2.7c0,0-2.4-39.6-5.2-46.9L-443.5,296z"/>
	<polygon class="st10" points="-436.6,304.8 -435.2,313.3 -425,312.8 -426.2,304.5 	"/>
	<g>
		<g>
			<polygon class="st18" points="-339.5,366 -337.8,357.1 -337,366.1 -333,363.9 -335.8,367.8 -328.1,369.2 -336,370 -333.4,374.3 
				-337.6,371.7 -338.9,380 -339.7,371.5 -343.9,373.5 -340.7,369.8 -349.8,368.5 -341.2,367.7 -343.5,363.3 			"/>
		</g>
	</g>
	<path class="st19" d="M-481.4,248.1c0,0,18.9-50.1,82.5-50.7C-398.9,197.3-400.6,287.2-481.4,248.1z"/>
	<path class="st19" d="M-498.8,179.8c0,0,25.5-21.7,48.1-25.6C-450.8,154.2-489.8,154.8-498.8,179.8z"/>
	<path class="st2" d="M-808.4,246.9c0,0-16.4,79.2-20.4,97.9s-9.1,40.2-11.9,44.7c-2.8,4.5-15.8,62.2-20.9,67.3
		c-5.1,5.1-10,11.9-20.5,11.9s-27.6,15.8-49.1,17.5s-151.2-0.9-151.2-0.9s-1-7.1,0-13.3s24.6-7.6,30.3-8.3
		c5.7-0.7,15.4-11.5,16.8-12.1s14.4-4.4,21.5-5.6s183.9-202.3,183.9-202.3L-808.4,246.9z"/>
	<path class="st10" d="M-717.2,294.5c-1.9-0.5-3.7,1-5.2,1.9c-3.4,2.2-9,4.5-18.5,4.7c0,0,28.3,84.4-22.1,120.4
		c-72.5,51.8-264.6-41.5-295.7,0c-18.9,25.3,50.9,71.3,71.8,167.2c13.7,62.7,0.3,117.9-12.5,153.7c11.1,7,20.4,9.3,27.8,6.9
		C-932.7,737-951.9,597.1-958,575c-2.1-7.7-4.7-15.9-4.7-15.9s-4.1-13.3-8.5-25.7c-10.3-28.9-67-84.4-60-96.6
		c8-14,86.1,39,175.4,33.7c25.5-1.5,94-3.4,132.3-51c5.4-6.7,9.1-12.9,11.3-17.2l0,0c0-0.1,8.7-18.2-0.9-99
		C-713.3,300.8-714.1,295.3-717.2,294.5z"/>
	<path class="st1" d="M-1010.3-37.8c0,0-1.2-11.2,29.9-9.2c31.1,2,45.2,2.5,45.2,2.5l-7.8,4.9c0,0-54.7-3.8-60.2-2.7
		S-1010.3-37.8-1010.3-37.8z"/>
	<g>
		<path class="st20" d="M-756.3,142.8c0,0,16.7,6,20.6,10.2c3.8,4.2,16.4,8.3,18.5,9.3c0,0,13.7,2.3,19.2,13.3
			c0,0,15.2,12.9,14.1,19.5c-1,6.7-11.9,1.2-11.9,1.2s4.9,17.9,1.3,18.2c-3.6,0.3-6.6-2-6.6-2s2.5,6.3,0.5,6.9
			c-2,0.5-8.2,9.4-14.2-1.9c-5.9-11.3-6.6-12.6-6.6-12.6l-12.5-3.8c0,0-21.4,5.5-27,3.9s-15.6-6.1-15.6-6.1l-22.1-15l-11.5-53
			C-810,130.9-755.2,134.1-756.3,142.8z"/>
		<path class="st1" d="M-683.9,195.1c0,0-15.6-5.1-17.7-11l-3.1-5c0,0,1,7.4-8.1,4.2c-9-3.2-14.1-9.8-14.1-9.8s1.1,2.1-8.8,0.1
			s-12.9-2.8-16.9-5.4c-4-2.6-8.9-8.7-8.9-8.7s-9.6,4.3-11.6,1.1s-3.5-7.9-3.5-7.9s-4.2,10.8-3.1,14.2c1.2,3.4-4.3-0.1-6.9-3.1
			c-2.6-3-17.6-5.8-17.6-5.8l-5.9-27.1c0,0,57.4,4.7,53.8,11.9l16.1,7c0,0,7.1,3.2,7.9,5.8c0.9,2.6,20.2,8.1,21,8.5
			s11.5,6.1,13.2,11.5C-698,175.6-681.8,189.1-683.9,195.1z"/>
		<path class="st2" d="M-701,212.6c0,0-8-12.4-13-17.1"/>
	</g>
	<path class="st12" d="M-962.1,283.1c0,0,58.6-3.8,73.4-21c14.8-17.2,0-116.8,0-116.8s-40.9-101.2-43.1-102.1
		c-2.3-0.8-13.9-1.4-13.9-1.4S-952.5,54-955.9,61c0,0-13.3,27.7-9.3,84C-961.2,201.5-962.1,283.1-962.1,283.1z"/>
	<path class="st10" d="M-962.1,283.1c0,0-34.6-3.9-48.7-3s-16.4-1.9-16.6-4.4c-0.2-2.4-2.3-44.1-4.5-63.4s-3.5-31.9-3-54.2
		s-2.7-27.5-3.5-30.2c-0.7-2.7-3.7-31.2,0-40.8s9.9-26,9.9-26h76.6L-962.1,283.1z"/>
	<path class="st12" d="M-1012.7,30.8c0,0-17.9,4-15.7,30.5h82.7l16.2-17.9c0,0,3.9-3.4,1.9-4.9c-2-1.4-83.1-1.6-84.6-2.2
		C-1013.6,35.8-1012.7,30.8-1012.7,30.8z"/>
	<path class="st10" d="M-926.3-41.9l-77.8-2.2c0,0-6.7-0.6-7.1,4c-0.4,4.6-1.9,71.6-1.9,71.6s-1.4,5.4,0.5,5.5s80.2,1.8,80.2,1.8
		L-926.3-41.9z"/>
	<path class="st0" d="M-849.9-68.9c0,0-0.2-9.3-36.1-8.2c-36,1.1-68.1,23.9-64.1,66.3c0,0-11.3,32.5,10.7,50.2
		c0,0-27.6,28.4-19.8,81.6c0,0-4.5,28.7-1.4,46.6s11.8,43.5,8.9,63.3s-9.5,17.3-5.6,85.8c0,0-1.9,17.3-1.6,30.9
		c0.4,13.6,4.7,24.5,3.1,28.7c-1.6,4.3-19.4,13.2-17.1,36.9c0,0-12.8-4.3-12,10.5c0,0-10,3.5-11,7.8s-17.3,7.8-17.3,7.8
		s-0.8,13.6-1.9,14s-13.2,3.5-17.1,8.5s-18.3,10.9-18.3,10.9s-31.1,8.9-31.8,12.8s-6.6,27.2,10.1,69.9c0,0,5,7.8,7.8,12
		c0,0,0,7,5.4,17.9s10.1,29.1,13.6,31.5s18.3-3.9,21-26.8c2.7-22.9,3.5-41.2,3.5-41.2s7.3,0.2,8.9,2c1.6,1.8,7.8-11.1,7.8-11.1
		s4.9-6.4,8.6-6.4s13.5-9.5,14.6-10.4s4.6-3.8,5.3-3.8s11.9-0.7,13.5-1.8s3.3-4.7,3.3-4.7s6.6,0.5,7.3-1.1c0.7-1.6,1.1-4.7,1.1-4.7
		s8.4,0.4,10.2,1.1s9.7-10,12.5-9.8c2.8,0.3,10.1-0.3,11.1-2.3s3.5-7.6,5.3-7.6s3-5.3,3-6.1c0-0.8,5.8-2,6.6-2.8s1.5-4.6,1.5-4.6
		s6.3-4.3,7.6-5.8s4.8-6.6,5.8-9.9s6.1-14.2,7.3-20c1.3-5.8,4.3-11.1,6.8-16.2s2.3-23.5,5.3-26.1c3-2.5,9.1-28.1,12.9-36.2
		c3.8-8.1,15.4-51.9,15.7-56.4c0.3-4.6,28-174.3,21.6-207.6c0,0-4.2-2.6-4.2-4.4s1.1-13.2,0.2-14.4c-0.9-1.1-1.1-4.3-1.1-7.3
		s-0.6-11.2-1.1-13.5s-0.6-2.3-0.6-2.3L-849.9-68.9z"/>
	<polygon class="st10" points="-849.1,174.9 -846.6,100.5 -811.6,98.9 -810,178.1 	"/>
	<polygon class="st12" points="-800,103.6 -833.5,103.6 -835.4,176 -821.3,177.2 -801.9,178.1 	"/>
	<path class="st10" d="M-823.8,103.6c0,0,10,46.3,9.1,52.6s2.6,16.6,6.3,18.1c3.7,1.6,6.5,3.8,6.5,3.8h-14.3c0,0-4.5-5.7-3.8-12.6
		s-5.3-12.8-5.3-12.8L-823.8,103.6z"/>
	<path class="st10" d="M-810,178.1c0,0-3.4,7.5,0,9.1s10,4.4,10,4.4h-29.6l-11.7-8.8v-7.2L-810,178.1z"/>
	<path class="st10" d="M-840.4,182.8c0,0-11.3-2.3-14.9,0c-3.6,2.3-12.6,13.4-12.6,18s33.6,45.4,33.6,45.4l6-54.1L-840.4,182.8z"/>
	<path class="st13" d="M-822.3,70.3c0,0-130.2-1.4-132.9-2.6c0,0-5.8,18-5.4,31.2c0,0,140.2,1,143.4-2.5l-4.2-4.4
		c0,0,1.4-7.1,0.2-14.4C-822.3,70.3-821.2,83.8-822.3,70.3z"/>
	<path class="st2" d="M-822.6,64.1c0,0-20.6,3.7-37.8-8.3S-893,26.3-898.2,18s-12.1-34.1-3.6-52.2s20.6-38.6,31.6-42.7
		c0,0,15.9-0.4,20.2,7.9c0,0-33.2,44.6-25.8,68.2C-868.4,23-824,54.6-824,54.6L-822.6,64.1z"/>
	<ellipse class="st15" cx="-974" cy="18.1" rx="11.4" ry="13.6"/>
	<path class="st12" d="M-1040,108.4h32.7v20.4l-30.6,0.3c0,0-0.5-1.2-0.8-4.2S-1040,108.4-1040,108.4z"/>
	<polygon class="st12" points="-963.8,170.9 -988.7,170.9 -988.7,154.6 -964.6,154.6 	"/>
	<polygon class="st12" points="-1029.7,237.6 -994.1,237.6 -994.1,253.5 -1028.6,253.5 	"/>
	<path class="st1" d="M-1009.1,516.4c0,0-20.6-20.6-24.7-38.8"/>
	<path class="st1" d="M-901.8,457c0,0-51.1-22.4-60-36.5"/>
	<path class="st1" d="M-924.1,470.7c0,0-42.6-37.4-45.7-47.5"/>
	<path class="st1" d="M-865.7,337.3c0,0-42.5-15.5-77.2-8.2"/>
	<path class="st1" d="M-859.3,308.1c0,0-37.9-9.1-61.7-8.7"/>
	<path class="st1" d="M-882.1,315.9c0,0-26.1-5-63.5-3.7"/>
	<path class="st1" d="M-854.3,123.9c0,0-9.4,21.3-14.7,23"/>
	<path class="st1" d="M-852.7,138.5c0,0-13.7,16.5-16.3,24.3"/>
	<path class="st1" d="M-828.3,76.6c0,0-17.1,1.2-35.9,0"/>
	<path class="st1" d="M-828.3,85.3c0,0-8.2,1.7-26.1,0"/>
	<path class="st9" d="M-824,54.6c0,0-47-7.2-65.8-47.9S-850-68.9-850-68.9s2.2,2.7,5.8,5.4c3.6,2.7,20.1,5.8,34.9,28.6
		S-791.8,21.9-824,54.6z"/>
	<ellipse class="st4" cx="-976.9" cy="18.1" rx="8.5" ry="12.7"/>
	<path class="st1" d="M-829.6,191.5c0,0-7.5-1.2-11.7-8.8"/>
	<path class="st1" d="M-841.3,181.8c0,0,20.3,1.8,25.1,1.3"/>
	<polygon class="st1" points="-800,103.6 -811.6,98.9 -846.6,100.5 -833.5,103.6 	"/>
	<path class="st19" d="M-833.7-51.6c0,0,30,42.4,18.5,79.9c0,0,9.1-22.9,7.4-37S-833.7-51.6-833.7-51.6z"/>
	<path class="st12" d="M-800,191.5c0,0,0.4,57-8.4,59.7l-27-5.1l5.8-54.5L-800,191.5L-800,191.5z"/>
	<path class="st2" d="M-744.6,177.1c0,0,5.4,12.7-5.7,18"/>
	<path class="st2" d="M-942.8,225.6c0,0,26.6-4.7,52.3,0.9"/>
	<path class="st1" d="M-1028.3,52c0,0,58.4,0,59.8,1.1"/>
	<g>
		<path class="st10" d="M-745.3,149.7c0,0,27.4,1,35,8.9c0,0,0.4,8.1-0.8,9s-5.9,0.4-5.1,3.5c0.8,3.1,4.6,25.9,3.7,26.5
			c-0.9,0.6-8.3-0.4-9.1,1.5s-2.8,17.1-4.3,20.8s-4.1,19.8,0,26.6s15.4,22.3,2.5,28.7c0,0-18.9,7.4-22.1,4.5
			c-3.2-2.9-9.4-7.9-5.6-18.7c3.8-10.8-0.9-30.9-1.1-34.2c-0.2-3.4-1.3-20.8,0.9-23.7C-751.3,203-753.9,162.6-745.3,149.7z"/>
		<path class="st10" d="M-735.7,150.5c0,0,9.2-24.3,29.4-33.9c0,0,1.4-3.2,1.8-4c0.4-0.8,9.4-6.5,9.4-6.5s8.8,6.3,7.5,13.2l-9.4,6.5
			l-4.9-0.2c0,0-19.7,8.2-22.4,25.9L-735.7,150.5z"/>
		<path class="st12" d="M-695.1,106.2c0,0,4.5-2.5,5.7-3.1c0,0,9.1,7.5,7,13.4l-5.2,2.8C-687.5,119.4-686.8,111.8-695.1,106.2z"/>
		<path class="st19" d="M-688.6,103.8l28.3-15.6c0,0,7.9,2.7,5.6,10.1l-27.4,16.8L-688.6,103.8z"/>
		<path class="st11" d="M-715.4,174.9c0,0-3-0.4-3.6-0.1c-0.6,0.4-7.4,11.1-0.5,20l7.1,0.6L-715.4,174.9z"/>
		<path class="st2" d="M-739.8,155.9l8.1,2c0,0-13.8,50.7-9.6,87.7c0,0,10,10.7,20.3,8.7c0,0,2.2,3.6,2.9,6.8
			c0,0-20.8,14.5-33.4,10.5c0,0-1.8-5,0.5-10.7s1.4-14.3,1.4-14.3s-3.2-24-2.9-31.7s-0.1-9.4,1.4-11.9s2.8-4.5,2.8-4.5L-739.8,155.9
			z"/>
		<path class="st10" d="M-742.2,303c0,0,17.2-0.7,27.2-9c0,0,0.7-1.5-1-4.1c0,0,2.6-5.4-1-9c-3.7-3.6-4.8-3.2-4.8-3.2l-1.6-2.6
			c0,0-12.3,4.9-18.5,5.1c0,0,0.8,2.2-0.1,2.6c-0.9,0.4-6.8,10.3,0.1,14.8C-741.8,297.7-744.5,301-742.2,303z"/>
	</g>
	<g>
		<path class="st1" d="M-867.7,125c0,0-40.1-0.2-75,37.9c0,0,14.7,38,52.1,63.6c0,0,5.3,5.7,12.5,9.2c7.2,3.4,49.7-0.6,53.9,0.5
			s10.6,8.1,24.4,1.8c0,0,4.8,5.5,21.8,2.5c0,0,9.2,0.9,10,2.3c0,0,35.9,15.3,41.8,21.3c0,0,9.4,2.5,6.4-5.1
			c-3-7.6-13.9-11.1-13.9-11.1s-6.3-6.2-7.2-9.1c-0.9-2.8,13,4.7,14,6.8s7.8,11.2,12.9,13.7c5.1,2.6,7.4-1.1,4.5-5.7
			s-6.3-12.8-8.7-14.4c-2.4-1.6-10.3-9.8-12-10.3c0,0,5.8,1.2,9.7,4.2s7.7,14.7,13.3,14.7c5.6,0.1,8.3-5.5,6.3-8.5
			s-10.1-13-12.8-14.2s-8.9-5.4-8.9-5.4s9.8,3.1,11.6,6.2c1.7,3.1,9.2,13.7,12.4,11.9c3.2-1.7,5.1-5.4,3.8-7.4s-7.9-11.9-12.5-13.6
			c-1.6-0.6-3.3-1.4-4.9-2.4c-3.1-1.7-5.7-3.6-5.7-3.6l6.8,2.3c0,0-8.3-10.7-14.1-13.9c0,0-14.9-11.6-27.7-13.3c0,0-7.3-4.8-9.6-3.6
			c0,0-2.7-5.1-4.3-5.3c-1.5-0.2-29-6.4-29.2-7.5s-4.9-3.3-7.8-1.9c0,0-3-4.3-11.9-6.3s-25.9-0.8-26.3-0.1c0,0-4.9-10.9-6.7-12.8
			c-1.8-1.9-3.7-1.5-4.5-2.9s-2.4-8.6-5.7-7.8s-5.9-0.3-6.7-2.5C-866.3,133-867.7,125-867.7,125z"/>
		<path class="st1" d="M-943.3,65.8c0,0,42.2-15.8,58.6,8.3s17.8,43.1,17.8,43.1l-0.8,7.9c0,0-40.8,0.4-75,37.9c0,0-1.4-2.8-5.3-5
			c-4-2.3-18.6-12.4-23-29S-974.8,79.1-943.3,65.8z"/>
		<path class="st2" d="M-869,174.3c0,0-24.4,29.6-16.7,49.6"/>
		<path class="st2" d="M-863.9,183.8c0,0-16.7,25.7-12.1,41.9"/>
		<path class="st0" d="M-803.8,167.6c0,0-5.1,13.9-13.2,19.1c-8.1,5.2-41.1-2.9-42.4-5.3s7.9-12.3,17.4-20.2
			C-842,161.2-811.5,156.9-803.8,167.6z"/>
		<path class="st2" d="M-755,199.7c0,0-20.9,27.2-13,43"/>
		<path class="st2" d="M-766.8,177.1c0,0-19,21.8-17.5,30.9"/>
		<path class="st2" d="M-789.4,171.8c0,0-22.2,25.5-14.5,46.8"/>
		<path class="st2" d="M-908.6,159.2c0,0,22.6-20.7,38.1-24.4"/>
		<path class="st2" d="M-866.9,117.1c0,0-43.4-0.9-81.1,40.8l5.3,5c0,0,29-34.2,75-37.9C-867.7,125-866,122.7-866.9,117.1z"/>
	</g>
	<path class="st2" d="M379.4,223.6c0,0-3.2-3.2-4.8-10.2c0,0,17.1-13.9,8.1-42.2s-36.4-32.8-36.4-32.8s-42.9-13.2-44.3,46.3
		c0,0,2.7,21.4,14.9,27.3l0.3,4.8C317.2,216.9,359.2,230.7,379.4,223.6z"/>
	<circle class="st1" cx="340.1" cy="179.1" r="37.3"/>
	<circle class="st9" cx="337.5" cy="177.9" r="33.6"/>
	<g>
		<path class="st21" d="M372.6,214.6c-4.1,1.5-8.3,2.6-12.6,3.4c-4.3,0.8-8.6,1.4-13,1.7c-4.3,0.3-8.7,0.4-13.1,0.1
			c-4.4-0.3-8.7-1-12.9-2v-0.1c4.3,0.4,8.6,1,12.9,1.1c4.3,0.2,8.6,0.3,13,0.1c4.3-0.2,8.6-0.7,12.9-1.4
			C364.2,216.8,368.4,215.9,372.6,214.6L372.6,214.6z"/>
	</g>
	<g>
		<path class="st21" d="M372.9,220.4c-4.1,1-8.3,1.7-12.5,2.4c-4.2,0.6-8.4,1.1-12.7,1.4c-4.2,0.3-8.5,0.5-12.8,0.1
			c-4.2-0.4-8.5-1-12.5-2.3v-0.1c4.2,0.8,8.4,1.3,12.6,1.4c4.2,0.2,8.4,0.2,12.6,0.1c4.2-0.2,8.4-0.6,12.6-1.1
			C364.5,221.7,368.7,221.1,372.9,220.4L372.9,220.4z"/>
	</g>
	<path class="st19" d="M350.7,204.1c0,0-7.1-30.8-44.2-36.1C306.4,168,300.4,220.7,350.7,204.1z"/>
	<path class="st19" d="M366.3,165.6c0,0-13.2-14.7-26.1-18.7C340.2,146.8,362.9,150.3,366.3,165.6z"/>
	<path class="st2" d="M352.6,283.8c0,0-1-4.1-8.5-2.7c-7.6,1.3-30.5-0.2-36.9,15.2l18,74c0,0-33.2,86.2-1.1,155.5h12.7
		c0,0,9.4-93.6,36.2-163.8c0,0,17.1-44.9-16.6-70L352.6,283.8z"/>
	<path class="st2" d="M402.8,519c0,0-55.7-77.8-62.3-109.8l29-38c0,0,42.6,129.5,45.7,143.1L402.8,519z"/>
	<path class="st0" d="M-156.7,723.7c0,0-29.5,17-20.6,64c0,0-36,95.8-30.1,191.7c0,0-4.5,13.5,0,16.9h43.8c0,0,2.4-17.9-23.5-16.9
		c0,0,24.1-56.8,36.6-116.7c0,0,15.6-44.6,12.5-59.8c0,0,7.9,34.1,32.3,68c0,0,4.1,47.5,35.6,109.2c0,0-0.5,9.9,4.7,16.3l42.1-12.2
		c0,0-3.8-16.4-30.1-8.9c0,0-0.4-61.7-13.6-110.1c0,0-3-55.1-37.8-104.8c0,0,2-14,0.3-25.9L-156.7,723.7z"/>
	<path class="st2" d="M-169.7,796.1c4.4-4.9,3.5-12.1-1.9-16.1c-0.6-0.4-1.2-0.8-1.8-1.1l7.5-40.1l-21.3,8.6l-3.8,36.7
		c-3,5.8-0.2,12.6,6.2,15.3C-179.6,801.6-173.3,800.2-169.7,796.1z"/>
	<path class="st2" d="M-190.1,771.8l19.1,3.9l8.9-64.5v-0.1l28-62.8c0-0.1,3.4-10.8-0.2-17.7c-1.3-2.5-3.6-4.4-6.4-5.2
		c-12.3-3.8-18,5.1-18.5,5.9l-22.8,69.1L-190.1,771.8z"/>
	<path class="st2" d="M-114.6,794.6c3.2-5.7,0.2-12.5-6.8-15.2c-0.7-0.3-1.5-0.5-2.3-0.7l-3.8-40.5l-20.3,12.9l6.7,36.5
		c-1.5,6.2,3.5,12.3,11.1,13.5C-123.7,802.1-117.3,799.4-114.6,794.6L-114.6,794.6z"/>
	<path class="st2" d="M-116.1,624.8c0,0-12.8,0.7-22.3-7.9c-9.5-8.6-17.5-20.4-20-25.8s-4.7-21.6,1.8-32
		c6.6-10.3,15.4-21.9,22.4-23.5c0,0,9.7,1,11.7,6.4c0,0-23.5,24.5-20.9,39.4s27.2,37.5,27.2,37.5L-116.1,624.8z"/>
	<path class="st9" d="M-116.2,618.9c0,0-28-7.9-36.3-34.1s30-42.8,30-42.8s1.2,1.8,3.1,3.7c2,1.9,11.8,5.1,19,20.1
		S-94.1,601.6-116.2,618.9z"/>
	<path class="st19" d="M-114,553.7c0,0,14.9,28,5.1,49.9c0,0,7.3-13.2,7.3-21.9C-101.4,573.1-114,553.7-114,553.7z"/>
	<path class="st0" d="M-108.9,649.3c0,0-5.6-14.1-7.2-24.5c0,0-21.2-12.3-26.7-17.1s-15.2-22.9-14.6-29s3.6-20.7,13.4-28.4
		s15.3-13.4,15.3-13.4s-7.3-1.7-10.9-1.8c-3.6-0.1-14.3-1.5-24.8,7.8c-10.6,9.3-24,36.1-13.8,63.6c10.1,27.5,16.2,47.8,19,57.6
		S-108.9,649.3-108.9,649.3z"/>
	<path class="st0" d="M-156.7,723.7c0,0-5.5-72-14.1-96.3l54.7-2.6c0,0,4.1,13.2,8.3,15.8c4.2,2.6,15.1,17.6,11.1,28.1
		s-7.6,65.7-7.6,65.7L-156.7,723.7z"/>
	<path class="st2" d="M-144.2,776.8l-10.3-72.1l4.6-72.9c0-0.1,3.4-11.8,17.4-11.2c3.1,0.1,6.1,1.4,8.2,3.7c5.5,6.1,5,17.4,4.9,17.8
		l-11.2,67.9l7.9,65.6L-144.2,776.8z"/>
	<path class="st0" d="M-65.3,996.3c0,0,32.3-0.8,42.1-12.2L-65.3,996.3z"/>
	<path class="st2" d="M-71.4,836.2c0,0-5.5,2.6-3.4,7.6s4.2,18.2,6.1,18.6c0,0,1.2,1.4,1.9,1.3C-66.9,863.8-66.9,852.9-71.4,836.2z"
		/>
	<path class="st2" d="M-150.4,862.7c0,0,5.5-13.8,6.2-19.9c0,0-1.4-3.9-3.1-3.9c-1.7,0-7.1,7.3-7.3,11.1s-2.8,9.5-0.7,10.8
		C-153.1,862.2-150.4,862.7-150.4,862.7z"/>
	<path class="st2" d="M-100.2,688.9c0,0-5-2.2-10.1-0.9c-5.1,1.2-5.2,44.1-4.9,44.2c0.3,0.1,8,5.3,11,2.2
		C-104.3,734.4-101.4,704.6-100.2,688.9z"/>
	<g>
		<g>
			<polygon class="st18" points="-137.5,649.9 -135.8,641.1 -135,650 -131,647.9 -133.8,651.8 -126.1,653.1 -134,654 -131.4,658.3 
				-135.6,655.6 -136.9,663.9 -137.7,655.4 -141.9,657.5 -138.7,653.8 -147.8,652.5 -139.2,651.6 -141.5,647.3 			"/>
		</g>
	</g>
</g>
<g id="Origineel">
	<path class="st3" d="M916.4,546.2c49.3-25.6,151.3-68.5,280.1-68.5s230.7,42.9,280.1,68.5c48,24.9,86.7,54.3,104.9,78.2
		c6.6-9-3.1-169.6-30-233.3c-80.7-191.4-268.3-315.7-476.1-315.6c-73-0.2-143,28.8-194.5,80.6c-1.1,1.1-2.2,2.2-3.2,3.3
		c-57,58.9-83.6,140.8-73.9,222.2c6.9,58,24,179.2,48.1,204.9C872.2,571.3,893.8,557.8,916.4,546.2z"/>
	<ellipse class="st3" cx="1202.2" cy="500.4" rx="82" ry="17.1"/>
	<path class="st22" d="M1285.5,114c-75.1,0-134-13.6-134-31c0-10.4,20.9-19.7,57.2-25.5c0.5-0.1,1.1,0.3,1.2,0.8s-0.3,1.1-0.8,1.1
		l0,0c-34.3,5.5-55.5,14.5-55.5,23.5c0,15.7,60.4,29,132,29s132-13.3,132-29c0-9.1-21.4-18.1-55.9-23.6c-0.5-0.1-0.9-0.6-0.8-1.1
		s0.6-0.9,1.1-0.8l0,0c36.6,5.8,57.6,15.1,57.6,25.6C1419.5,100.4,1360.7,114,1285.5,114z"/>
	<path class="st23" d="M1219,119.8c21.4,36.7,68.6,49.1,105.3,27.7c11.6-6.7,21.2-16.4,27.9-28
		C1307.8,122.1,1263.4,122.2,1219,119.8z"/>
	<path class="st23" d="M1359.6,98.1c11.7-40.9-12-83.5-52.9-95.2s-83.5,12-95.2,52.9c-4,14.1-3.9,29,0.2,43
		C1260.8,105.1,1310.5,104.8,1359.6,98.1z"/>
	<circle class="st5" cx="1303.5" cy="34" r="9"/>
	<circle class="st5" cx="1256.5" cy="71" r="15"/>
	<circle class="st5" cx="1285.5" cy="142" r="9"/>
	<ellipse class="st6" cx="1204.6" cy="500.2" rx="55.6" ry="9.2"/>
	<ellipse class="st3" cx="1019.2" cy="587.4" rx="93.6" ry="19.5"/>
	<ellipse class="st3" cx="1400.2" cy="611.4" rx="139.5" ry="29.1"/>
	<ellipse class="st6" cx="1019" cy="586.7" rx="71.7" ry="11.9"/>
	<ellipse class="st6" cx="1400.3" cy="609.5" rx="122.6" ry="20.3"/>
	<circle class="st5" cx="859.5" cy="319" r="7"/>
	<circle class="st5" cx="1349.5" cy="421" r="7"/>
	<path class="st7" d="M1110.4,197.1c0,17.7,16.3,15,36.5,15s36.5,2.7,36.5-15s-8-49-36.5-49C1117.4,148.1,1110.4,179.4,1110.4,197.1
		z"/>
	<path class="st8" d="M1065.7,346.7c-2.8-5.3-0.7-11.7,4.5-14.5c0.6-0.3,1.1-0.5,1.7-0.7l41.8-88.5l19.1,13.4l-47.1,82.7
		c1.4,5.8-2.1,11.6-7.9,13.1C1073,353.5,1068,351.2,1065.7,346.7L1065.7,346.7z"/>
	<path class="st23" d="M1101.5,254.8c-0.4-1.3-0.2-2.8,0.6-4l13-20.4c3-6.7,10.9-9.8,17.7-6.8c6.7,3,9.7,10.9,6.8,17.6l-6.5,23.4
		c-0.7,2.6-3.4,4.1-5.9,3.3c-0.2-0.1-0.4-0.1-0.7-0.2l-22.2-9.9C1102.9,257.2,1102,256.1,1101.5,254.8z"/>
	<polygon class="st8" points="1217.6,517.7 1206,521.9 1184.4,479.4 1201.4,473.3 	"/>
	<path class="st7" d="M1196.6,521.6l22.2-8.1l0,0l5.1,14l0,0l-36.2,13.2l0,0l0,0C1184.9,532.9,1188.9,524.4,1196.6,521.6z"/>
	<path class="st7" d="M1186.1,490.8l-43.9-76.8c-0.9-1.5-0.8-3.4,0.1-4.9l19.8-32.9c1.4-2.3,4.3-3,6.6-1.7c1,0.6,1.7,1.5,2.1,2.5
		l37.4,103.5c0.9,2.3-0.2,4.9-2.5,6l-13.2,6.3c-0.6,0.3-1.3,0.5-2,0.5C1188.6,493.3,1187,492.3,1186.1,490.8z"/>
	<circle class="st8" cx="1145.4" cy="186.6" r="24.6"/>
	<path class="st23" d="M1110.4,297.8c-19.3-42.9,0.2-66.9,9.4-75.2c2.7-2.4,6.1-3.7,9.7-3.7h34.6c8.1,0,14.6,6.5,14.6,14.6
		c0,2.3-0.5,4.5-1.5,6.5l-23.1,46.3l-43.5,12L1110.4,297.8z"/>
	<polygon class="st8" points="1138.4,529.3 1126.2,529.3 1120.3,482 1138.4,482 	"/>
	<path class="st7" d="M1117.4,525.8h23.6l0,0v14.9l0,0h-38.5l0,0l0,0C1102.5,532.4,1109.2,525.8,1117.4,525.8z"/>
	<path class="st7" d="M1133.2,511.2l-19.6-2.3c-2.6-0.3-4.5-2.7-4.2-5.3v-0.1l17.5-131.9c0.1-0.5,0-0.9-0.1-1.4l-17.6-72.6
		c-0.3-1.4-0.1-2.8,0.8-3.9c2.7-3.8,12.1-12.5,39.9-12.7l0,0c1.9,0,3.6,1.1,4.4,2.8l3.7,8.2c0.3,0.6,0.7,1.1,1.3,1.5
		c5.1,3.6,29.9,23.9,15.3,68.5c-14.3,43.8-32.6,128.9-36.1,145.5c-0.5,2.2-2.4,3.8-4.7,3.8C1133.6,511.3,1133.4,511.3,1133.2,511.2z
		"/>
	<path class="st8" d="M1230.9,192.7c0,0.6,0.1,1.1,0.3,1.6l-33.3,36.7l-11.8-2.5l-6.2,17.3l20.4,6.5c3.4,1.1,7.1-0.2,9.1-3.2
		l31.5-46.8c5.8,0.3,10.7-4.2,11-10s-4.2-10.7-10-11s-10.7,4.2-11,10C1230.8,191.9,1230.8,192.3,1230.9,192.7L1230.9,192.7z"/>
	<path class="st23" d="M1196.8,232.6L1189,254c-0.8,2.3-3.4,3.5-5.8,2.7c-0.2-0.1-0.4-0.2-0.6-0.3l-19.9-10.7
		c-6.5-2.4-9.8-9.6-7.4-16c2.4-6.5,9.5-9.8,16-7.4l22.1,4.5c2.4,0.5,4,2.9,3.5,5.3C1196.9,232.2,1196.9,232.4,1196.8,232.6z"/>
	<path class="st7" d="M1175.4,185.1L1175.4,185.1h-9.7l-4.3-12l-0.9,12h-4.6l-2.5-7l-0.5,7h-34.5l0,0c0-14.4,11.6-26,26-26h5
		C1163.8,159.1,1175.4,170.7,1175.4,185.1z"/>
	<path class="st5" d="M916,442h-3.5v-3.5c0-2.5-2-4.5-4.5-4.5s-4.5,2-4.5,4.5v3.5H900c-2.5,0-4.5,2-4.5,4.5s2,4.5,4.5,4.5h3.5v3.5
		c0,2.5,2,4.5,4.5,4.5s4.5-2,4.5-4.5V451h3.5c2.5,0,4.5-2,4.5-4.5S918.5,442,916,442z"/>
	<path class="st24" d="M1431.2,356.2h-1.8v-1.8c0-1.3-1.1-2.3-2.3-2.3c-1.3,0-2.3,1-2.3,2.3v1.8h-1.8c-1.3,0-2.3,1.1-2.3,2.3
		c0,1.3,1,2.3,2.3,2.3h1.8v1.8c0,1.3,1.1,2.3,2.3,2.3c1.3,0,2.3-1,2.3-2.3v-1.8h1.8c1.3,0,2.3-1,2.3-2.3S1432.5,356.2,1431.2,356.2
		L1431.2,356.2z"/>
	<path class="st23" d="M900.2,235.2h-1.8v-1.8c0-1.3-1-2.3-2.3-2.3s-2.3,1-2.3,2.3l0,0v1.8H892c-1.3,0-2.3,1-2.3,2.3s1,2.3,2.3,2.3
		l0,0h1.8v1.8c0,1.3,1,2.3,2.3,2.3s2.3-1,2.3-2.3l0,0v-1.8h1.8c1.3,0,2.3-1,2.3-2.3S901.5,235.2,900.2,235.2L900.2,235.2z"/>
	<path class="st5" d="M1035.2,235.2h-1.8v-1.8c0-1.3-1-2.3-2.3-2.3s-2.3,1-2.3,2.3l0,0v1.8h-1.8c-1.3,0-2.3,1-2.3,2.3s1,2.3,2.3,2.3
		l0,0h1.8v1.8c0,1.3,1,2.3,2.3,2.3s2.3-1,2.3-2.3l0,0v-1.8h1.8c1.3,0,2.3-1,2.3-2.3S1036.5,235.2,1035.2,235.2L1035.2,235.2z"/>
	<path class="st5" d="M1500.2,475.2h-1.8v-1.8c0-1.3-1.1-2.3-2.3-2.3c-1.3,0-2.3,1-2.3,2.3v1.8h-1.8c-1.3,0-2.3,1.1-2.3,2.3
		c0,1.3,1,2.3,2.3,2.3h1.8v1.8c0,1.3,1.1,2.3,2.3,2.3c1.3,0,2.3-1,2.3-2.3v-1.8h1.8c1.3,0,2.3-1.1,2.3-2.3
		C1502.5,476.2,1501.5,475.2,1500.2,475.2z"/>
	<path class="st5" d="M1290.2,280.2h-1.8v-1.8c0-1.3-1.1-2.3-2.3-2.3c-1.3,0-2.3,1-2.3,2.3v1.8h-1.8c-1.3,0-2.3,1.1-2.3,2.3
		c0,1.3,1,2.3,2.3,2.3h1.8v1.8c0,1.3,1.1,2.3,2.3,2.3c1.3,0,2.3-1,2.3-2.3v-1.8h1.8c1.3,0,2.3-1,2.3-2.3S1291.5,280.2,1290.2,280.2
		L1290.2,280.2z"/>
	<path class="st5" d="M969.2,330.2h-1.8v-1.8c0-1.3-1-2.3-2.3-2.3s-2.3,1-2.3,2.3l0,0v1.8H961c-1.3,0-2.3,1-2.3,2.3s1,2.3,2.3,2.3
		l0,0h1.8v1.8c0,1.3,1,2.3,2.3,2.3s2.3-1,2.3-2.3l0,0v-1.8h1.8c1.3,0,2.3-1,2.3-2.3S970.5,330.2,969.2,330.2L969.2,330.2z"/>
	<path class="st5" d="M975.2,164.2h-1.8v-1.8c0-1.3-1-2.3-2.3-2.3s-2.3,1-2.3,2.3l0,0v1.8H967c-1.3,0-2.3,1-2.3,2.3s1,2.3,2.3,2.3
		l0,0h1.8v1.8c0,1.3,1,2.3,2.3,2.3s2.3-1,2.3-2.3l0,0v-1.8h1.8c1.3,0,2.3-1,2.3-2.3S976.5,164.2,975.2,164.2L975.2,164.2z"/>
</g>
</svg>
