<?xml version="1.0" encoding="utf-8"?>
<!-- Generator: Adobe Illustrator 25.2.1, SVG Export Plug-In . SVG Version: 6.00 Build 0)  -->
<svg version="1.1" xmlns="http://www.w3.org/2000/svg" xmlns:xlink="http://www.w3.org/1999/xlink" x="0px" y="0px"
	 viewBox="0 0 810.5 574.2" style="enable-background:new 0 0 810.5 574.2;" xml:space="preserve">
<style type="text/css">
	.st0{fill:#3A3C8E;}
	.st1{fill:#FFFFFF;}
	.st2{fill:#E6E6E6;}
	.st3{fill:#372771;}
	.st4{fill:#5E509C;}
	.st5{fill:#D65599;}
	.st6{fill:#319CD0;}
	.st7{fill:#FBC641;}
	.st8{fill:#3F3D56;}
	.st9{fill:#6C63FF;}
	.st10{fill:#594091;}
	.st11{fill:#3A2A82;}
	.st12{fill:#3C4696;}
	.st13{fill:#B63289;}
	.st14{fill:#D6398A;}
	.st15{fill:none;}
	.st16{fill:none;stroke:#1D1D1B;stroke-miterlimit:10;}
	.st17{fill:#FAB938;}
	.st18{fill:#7AB7DB;}
	.st19{fill:#3A3A8D;}
	.st20{font-family:'Avenir-Black';}
	.st21{font-size:12px;}
	.st22{fill:#9F616A;}
	.st23{fill:#2F2E41;}
	.st24{fill:#CCCCCC;}
</style>
<g id="Aangepast">
	<path class="st0" d="M169.7,300.6c0,0-29.5,17-20.6,64c0,0-36,95.8-30.1,191.7c0,0-4.5,13.5,0,16.9h43.8c0,0,2.4-17.9-23.5-16.9
		c0,0,24.1-56.8,36.6-116.7c0,0,15.6-44.6,12.5-59.8c0,0,7.9,34.1,32.3,68c0,0,4.1,47.5,35.6,109.2c0,0-0.5,9.9,4.7,16.3l42.1-12.2
		c0,0-3.8-16.4-30.1-8.9c0,0-0.4-61.7-13.6-110.1c0,0-3-55.1-37.8-104.8c0,0,2-14,0.3-25.9L169.7,300.6z"/>
	<path class="st1" d="M603.5,296h-270c-2.8,0-5-2.2-5-5V168c0-2.8,2.2-5,5-5h270c2.8,0,5,2.2,5,5v123
		C608.5,293.7,606.3,296,603.5,296z"/>
	<path class="st0" d="M603.5,296h-270c-2.8,0-5-2.2-5-5V168c0-2.8,2.2-5,5-5h270c2.8,0,5,2.2,5,5v123
		C608.5,293.7,606.3,296,603.5,296z M333.5,165c-1.7,0-3,1.3-3,3v123c0,1.7,1.3,3,3,3h270c1.7,0,3-1.3,3-3V168c0-1.7-1.3-3-3-3
		H333.5z"/>
	<circle class="st0" cx="368.5" cy="201.5" r="21"/>
	<path class="st2" d="M417,187.5c-1.9,0-3.5,1.6-3.5,3.5s1.6,3.5,3.5,3.5h165c1.9,0,3.5-1.6,3.5-3.5s-1.6-3.5-3.5-3.5H417z"/>
	<path class="st2" d="M417,208.5c-1.9,0-3.5,1.6-3.5,3.5s1.6,3.5,3.5,3.5h71c1.9,0,3.5-1.6,3.5-3.5s-1.6-3.5-3.5-3.5H417z"/>
	<path class="st2" d="M352.4,242.1c-2.7,0-4.8,1.6-4.8,3.5s2.2,3.5,4.8,3.5H580c2.7,0,4.8-1.6,4.8-3.5s-2.2-3.5-4.8-3.5H352.4z"/>
	<path class="st2" d="M352.4,263.1c-2.7,0-4.8,1.6-4.8,3.5s2.2,3.5,4.8,3.5H580c2.7,0,4.8-1.6,4.8-3.5s-2.2-3.5-4.8-3.5H352.4z"/>
	<path class="st1" d="M805.5,133h-270c-2.8,0-5-2.2-5-5V5c0-2.8,2.2-5,5-5h270c2.8,0,5,2.2,5,5v123C810.5,130.7,808.3,133,805.5,133
		z"/>
	<path class="st0" d="M805.5,133h-270c-2.8,0-5-2.2-5-5V5c0-2.8,2.2-5,5-5h270c2.8,0,5,2.2,5,5v123C810.5,130.7,808.3,133,805.5,133
		z M535.5,2c-1.7,0-3,1.3-3,3v123c0,1.7,1.3,3,3,3h270c1.7,0,3-1.3,3-3V5c0-1.7-1.3-3-3-3H535.5z"/>
	<circle class="st0" cx="570.5" cy="38.5" r="21"/>
	<path class="st2" d="M619,24.5c-1.9,0-3.5,1.6-3.5,3.5s1.6,3.5,3.5,3.5h165c1.9,0,3.5-1.6,3.5-3.5s-1.6-3.5-3.5-3.5H619z"/>
	<path class="st2" d="M619,45.5c-1.9,0-3.5,1.6-3.5,3.5s1.6,3.5,3.5,3.5h71c1.9,0,3.5-1.6,3.5-3.5s-1.6-3.5-3.5-3.5H619z"/>
	<path class="st2" d="M554.4,79.1c-2.7,0-4.8,1.6-4.8,3.5s2.2,3.5,4.8,3.5H782c2.7,0,4.8-1.6,4.8-3.5s-2.2-3.5-4.8-3.5H554.4z"/>
	<path class="st2" d="M554.4,100.1c-2.7,0-4.8,1.6-4.8,3.5s2.2,3.5,4.8,3.5H782c2.7,0,4.8-1.6,4.8-3.5s-2.2-3.5-4.8-3.5H554.4z"/>
	<path class="st1" d="M805.5,459h-270c-2.8,0-5-2.2-5-5V331c0-2.8,2.2-5,5-5h270c2.8,0,5,2.2,5,5v123
		C810.5,456.7,808.3,459,805.5,459z"/>
	<path class="st0" d="M805.5,459h-270c-2.8,0-5-2.2-5-5V331c0-2.8,2.2-5,5-5h270c2.8,0,5,2.2,5,5v123
		C810.5,456.7,808.3,459,805.5,459z M535.5,328c-1.7,0-3,1.3-3,3v123c0,1.7,1.3,3,3,3h270c1.7,0,3-1.3,3-3V331c0-1.7-1.3-3-3-3
		H535.5z"/>
	<circle class="st0" cx="570.5" cy="364.5" r="21"/>
	<path class="st2" d="M619,350.5c-1.9,0-3.5,1.6-3.5,3.5s1.6,3.5,3.5,3.5h165c1.9,0,3.5-1.6,3.5-3.5s-1.6-3.5-3.5-3.5H619z"/>
	<path class="st2" d="M619,371.5c-1.9,0-3.5,1.6-3.5,3.5s1.6,3.5,3.5,3.5h71c1.9,0,3.5-1.6,3.5-3.5s-1.6-3.5-3.5-3.5H619z"/>
	<path class="st2" d="M554.4,405.1c-2.7,0-4.8,1.6-4.8,3.5s2.2,3.5,4.8,3.5H782c2.7,0,4.8-1.6,4.8-3.5s-2.2-3.5-4.8-3.5H554.4z"/>
	<path class="st2" d="M554.4,426.1c-2.7,0-4.8,1.6-4.8,3.5s2.2,3.5,4.8,3.5H782c2.7,0,4.8-1.6,4.8-3.5s-2.2-3.5-4.8-3.5H554.4z"/>
	<path class="st3" d="M156.7,373c4.4-4.9,3.5-12.1-1.9-16.1c-0.6-0.4-1.2-0.8-1.8-1.1l7.5-40.1l-21.3,8.6l-3.8,36.7
		c-3,5.8-0.2,12.6,6.2,15.3C146.8,378.6,153.1,377.2,156.7,373z"/>
	<path class="st3" d="M136.3,348.8l19.1,3.9l8.9-64.5v-0.1l28-62.8c0-0.1,3.4-10.8-0.2-17.7c-1.3-2.5-3.6-4.4-6.4-5.2
		c-12.3-3.8-18,5.1-18.5,5.9l-22.8,69.1L136.3,348.8z"/>
	<path class="st3" d="M211.8,371.6c3.2-5.7,0.2-12.5-6.8-15.2c-0.7-0.3-1.5-0.5-2.3-0.7l-3.8-40.5l-20.3,12.9l6.7,36.5
		c-1.5,6.2,3.5,12.3,11.1,13.5C202.7,379.1,209.1,376.4,211.8,371.6L211.8,371.6z"/>
	<circle class="st0" cx="-202.7" cy="28.5" r="28.2"/>
	<circle class="st4" cx="-164.8" cy="28.5" r="28.2"/>
	<circle class="st5" cx="-126.8" cy="28.5" r="28.2"/>
	<circle class="st6" cx="-88.9" cy="28.5" r="28.2"/>
	<circle class="st7" cx="-51.5" cy="28.5" r="28.2"/>
	<path class="st1" d="M1434.1,296h-270c-2.8,0-5-2.2-5-5V168c0-2.8,2.2-5,5-5h270c2.8,0,5,2.2,5,5v123
		C1439.1,293.7,1436.8,296,1434.1,296z"/>
	<path class="st8" d="M1434.1,296h-270c-2.8,0-5-2.2-5-5V168c0-2.8,2.2-5,5-5h270c2.8,0,5,2.2,5,5v123
		C1439.1,293.7,1436.8,296,1434.1,296z M1164.1,165c-1.7,0-3,1.3-3,3v123c0,1.7,1.3,3,3,3h270c1.7,0,3-1.3,3-3V168c0-1.7-1.3-3-3-3
		H1164.1z"/>
	<circle class="st9" cx="1199.1" cy="201.5" r="21"/>
	<path class="st10" d="M-458,151.4c0,0,96.3,8,125.3,0.2c29-7.7,43,239.9,43,239.9s-71.8,18.8-112.1,18.9
		C-401.9,410.4-464.8,346.9-458,151.4z"/>
	<path class="st4" d="M-458,151.4c0,0-11.1,4.2-29.6,3.4c0,0-2.2,34-0.4,39.4c0,0-4.2,4.3-8,3.5c0,0-1,45.5,0.7,48.1
		s10.9,2.1,10.9,2.1s4,91.7,22.1,105.7c0,0-4.8,33.2,15.7,35c0,0,7.4,22.9,12.4,24.5l32.4-2.7L-458,151.4z"/>
	<path class="st4" d="M-467.9,155.6c0,0,2.2-78.2,56.4-65.5l-7.3,64.9L-467.9,155.6z"/>
	<path class="st10" d="M-412.6,90c0,0,55.1-13.8,128.8,7.1l-15,76.4L-420,154.8L-412.6,90z"/>
	<path class="st10" d="M-444.9,95.6c0,0,17.1-17.1,103.8-11.6l57.1,14.5c0,0-60.7-20.2-129.9-7.6C-414,90.9-429.8,85.5-444.9,95.6z"
		/>
	<path class="st10" d="M-468.7,173.8l-20.3,3l1.9,12.7l19.1-2.7c0,0,0.2-0.8,0.1-2.7S-468.7,173.8-468.7,173.8z"/>
	<polygon class="st10" points="-479.6,290 -464,288.4 -465,278.2 -480.1,279.8 	"/>
	<polygon class="st10" points="-435,361.7 -457.1,364.9 -455.7,374.8 -434.2,371.7 	"/>
	<path class="st0" d="M-403.1,225.2c0,0-25.8,213.4,121.7,222.3c0,0-10.8,47.5,30.1,69.3c0,0-5.1,23.7,5.4,32c0,0,32.2,2.1,51.5-9.1
		c0,0,2.1-7.9-3.1-12.2c-5.2-4.3-20.4-1.5-20.4-1.5s12.2-64.2-18.1-121.6c0,0,41.9,9.5,52.4,5.6c0,0,59.8,50,87.1,51.5
		c0,0,5.8,9.6,15.9,12c0,0,24.2-2.1,46.1-31.3c0,0-1.6-7-8.6-8s-28.1,0.3-28.1,0.3s-0.2-3.6-8.5-5.6c0,0-6.7-22.4-28.8-34.3
		s-34.3-29-35.8-30.6s-10.8-10.6-41.3-13.9c0,0-53.2-7.2-64.8-9.4c-11.6-2.3-29.3-34-30.5-38.9c-1.1-4.9,0.6-53.6-19.7-74.9
		C-300.7,226.9-343.5,230.8-403.1,225.2z"/>
	<path class="st11" d="M-300.7,226.9c0,0,43.8-11.1,32.5,38.5c0,0,21.5,9.9,57,66.7l8.7,15.6c0,0-54.1-2.5-59.5-7.1
		s-30.9-44.9-29.4-54.5S-300.7,226.9-300.7,226.9z"/>
	<path class="st12" d="M-237.2,426.9c0,0-22.3,10.5-29,4.4c-6.6-6.1-20-22.9-20.4-26s1.7-12.5,4.5-15s17.6-8.9,24.1-4.6
		s24.1,20.1,23.9,32.5C-234,418.2-233.1,423.4-237.2,426.9z"/>
	<path class="st3" d="M-272.2,418.3c0,0,11.3-4.6,31.5-7.7"/>
	<path class="st3" d="M-280.2,405.1c0,0,9.4-8,27.6-10.3"/>
	<path class="st3" d="M-245.9,548.8c0,0,21.2-11.1,51.9-12.9l-0.4,3.8C-194.4,539.7-209,550.1-245.9,548.8z"/>
	<path class="st3" d="M-80.7,473.5c0,0,28.4-23.7,45.1-33.9l1,2.5C-34.6,442.2-54.2,470.5-80.7,473.5z"/>
	<path class="st3" d="M-154.3,422c0,0,8-21.3,21.7-39.3"/>
	<path class="st3" d="M-145.3,428.1c0,0,2.1-11.9,19.3-36.5"/>
	<path class="st0" d="M-423.7,234.1c0,0,10.4-13.9,20.6-8.9l13.3,5.1l-9.7,8.6L-423.7,234.1z"/>
	<path class="st3" d="M-268.9,268.6c0,0-14.7,0.1-17.9,3.6"/>
	<polygon class="st5" points="-339.7,339.7 -276.6,352.1 -227.6,329 -281.9,318.3 	"/>
	
		<rect x="-312.4" y="317.3" transform="matrix(0.1929 -0.9812 0.9812 0.1929 -592.1448 -20.9824)" class="st13" width="7.2" height="64.3"/>
	<polygon class="st5" points="-278,359.1 -185.7,350.1 -149,280.9 -241.2,282.9 -276.6,352.1 	"/>
	<polygon class="st13" points="-156.2,274.9 -244.5,278.7 -281.8,351.1 -276.6,352.1 -241.2,282.9 -149,280.9 	"/>
	<path class="st0" d="M-406.7,224.1c0,0,6.1-4.7,10.4-16c0,0-25.5-27.3-4.1-72.7s68.5-46.9,68.5-46.9s75-12.6,63.9,87.7
		c0,0-9.3,35.4-31.2,42.6l-1.6,8.1C-300.7,226.9-374.2,240.7-406.7,224.1z"/>
	<circle class="st3" cx="-330.5" cy="158.3" r="63.2"/>
	<circle class="st6" cx="-325.8" cy="156.8" r="56.9"/>
	
		<ellipse transform="matrix(0.1929 -0.9812 0.9812 0.1929 -478.9694 -328.4111)" class="st14" cx="-439.1" cy="126.9" rx="14.1" ry="11.8"/>
	
		<ellipse transform="matrix(0.1929 -0.9812 0.9812 0.1929 -480.6826 -331.7007)" class="st5" cx="-442" cy="126.3" rx="13.2" ry="8.8"/>
	<path class="st10" d="M-350.8,395.9c0,0,4-48,54.9-33.7"/>
	<line class="st15" x1="-371.4" y1="285.1" x2="-325.9" y2="283.5"/>
	<path class="st11" d="M-383.9,291.4c0,0,17.4-46.6-16.4-59.5s-58.7,43.9-29.8,82.3c0,0-9,17.9,12.9,22.8c0,0,40.7,37.4,76.6-4.4
		c0,0,5.6-0.2,8.9-2.3c0,0,9.2-5.7,7.9-6.9c0,0,11.3,1,13.2,2.6s10.7,10.8,16.6,10.7c0,0,2-0.2,2.1-1.3c0,0,6.4,2,7.4-3.3
		c0,0,4.2-1.8,1.5-7.6l-6.2-9.1c0,0,7.3-0.6,9.8-0.5s3.8-6.4-2.2-6.4s-16.3-1.9-22.8-3.8s-22.9-6.7-26.6-5.2
		c-3.6,1.5-9.2,3.5-9.4,9.3c0,0-6.4-2.4-7.8,1.1C-348.4,309.9-377.8,308.5-383.9,291.4z"/>
	<path class="st16" d="M-307.3,321.5c0,0,8.6,5.4,15.3,13.9"/>
	<path class="st16" d="M-297.7,318.4c0,0,8.3,4.5,13.1,13.7"/>
	<path class="st3" d="M-428.5,308.5c0,0,8-17.2,39.5-17.7"/>
	<path class="st3" d="M-422.8,325.7c0,0,17.8-26.4,32-25.6"/>
	<path class="st3" d="M-410.5,335.7c0,0,6.3-27.1,22-27.8"/>
	<path class="st12" d="M-379,239.7c0,0,6.7,10.1,2.8,22.6c0,0,59.6-2.7,78.6,0.3l-5.6-23C-303.2,239.6-331.2,243-379,239.7z"/>
	<g>
		<path class="st3" d="M-393,210.4c6.6,3.3,13.5,5.8,20.5,8s14.1,4,21.4,5.3c7.2,1.3,14.5,2.3,21.8,2.8c1.8,0.1,3.7,0.4,5.5,0.4
			l5.5,0.2c1.8,0.1,3.7,0.1,5.5,0.1h5.5v0.1c-3.7,0.2-7.4,0.5-11,0.5c-3.7,0-7.4,0-11.1-0.3c-7.4-0.4-14.7-1.6-21.9-3
			c-7.2-1.4-14.4-3.3-21.4-5.6C-379.7,216.6-386.5,213.9-393,210.4L-393,210.4z"/>
	</g>
	<g>
		<path class="st3" d="M-394.9,220.1c6.8,2.4,13.7,4.4,20.6,6.2s13.9,3.5,21,4.8s14.2,2.2,21.3,2.8c7.1,0.6,14.3,0.7,21.5,0.1v0.1
			c-7.1,1.2-14.4,1.2-21.5,0.8c-7.2-0.5-14.3-1.7-21.4-3c-7.1-1.4-14-3.1-21-5.1C-381.4,224.8-388.2,222.7-394.9,220.1L-394.9,220.1
			z"/>
	</g>
	<path class="st4" d="M-316.1,245.9l-5.8,3.6c0,0,6.4,45.3,5.6,48.5l33.9-2.2l2.8-3.7L-316.1,245.9z"/>
	<path class="st10" d="M-316.1,245.9c0,0,6.3,41.2,5.2,49c0,0,27.8-3.3,31.2-2.7c0,0-2.4-39.6-5.2-46.9L-316.1,245.9z"/>
	<polygon class="st4" points="-309.2,254.7 -307.8,263.2 -297.6,262.6 -298.8,254.4 	"/>
	<g>
		<g>
			<polygon class="st17" points="-212.1,315.8 -210.4,307 -209.6,316 -205.6,313.8 -208.4,317.7 -200.7,319.1 -208.6,319.9 
				-206.1,324.2 -210.2,321.5 -211.5,329.9 -212.3,321.4 -216.5,323.4 -213.3,319.7 -222.4,318.4 -213.8,317.6 -216.1,313.2 			"/>
		</g>
	</g>
	<path class="st18" d="M-354,198c0,0,18.9-50.1,82.5-50.7C-271.5,147.2-273.2,237.1-354,198z"/>
	<path class="st18" d="M-371.5,129.6c0,0,25.5-21.7,48.1-25.6C-323.4,104.1-362.4,104.7-371.5,129.6z"/>
	<path class="st3" d="M-681,196.8c0,0-16.4,79.2-20.4,97.9s-9.1,40.2-11.9,44.7c-2.8,4.5-15.8,62.2-20.9,67.3
		c-5.1,5.1-10,11.9-20.5,11.9s-27.6,15.8-49.1,17.5s-151.2-0.9-151.2-0.9s-1-7.1,0-13.3c1-6.2,24.6-7.6,30.3-8.3
		c5.7-0.7,15.4-11.5,16.8-12.1c1.4-0.6,14.4-4.4,21.5-5.6c7.2-1.3,183.9-202.3,183.9-202.3L-681,196.8z"/>
	<path class="st4" d="M-589.8,244.4c-1.9-0.5-3.7,1-5.2,1.9c-3.4,2.2-9,4.5-18.5,4.7c0,0,28.3,84.4-22.1,120.4
		c-72.5,51.8-264.6-41.5-295.7,0c-18.9,25.3,50.9,71.3,71.8,167.2c13.7,62.7,0.3,117.9-12.5,153.7c11.1,7,20.4,9.3,27.8,6.9
		c38.9-12.3,19.7-152.2,13.6-174.3c-2.1-7.7-4.7-15.9-4.7-15.9s-4.1-13.3-8.5-25.7c-10.3-28.9-67-84.4-60-96.6
		c8-14,86.1,39,175.4,33.7c25.5-1.5,94-3.4,132.3-51c5.4-6.7,9.1-12.9,11.3-17.2l0,0c0-0.1,8.7-18.2-0.9-99
		C-585.9,250.6-586.7,245.2-589.8,244.4z"/>
	<path class="st11" d="M-883-87.9c0,0-1.2-11.2,29.9-9.2c31.1,2,45.2,2.5,45.2,2.5l-7.8,4.9c0,0-54.7-3.8-60.2-2.7
		C-881.4-91.4-883-87.9-883-87.9z"/>
	<g>
		<path class="st19" d="M-628.9,92.7c0,0,16.7,6,20.6,10.2c3.8,4.2,16.4,8.3,18.5,9.3c0,0,13.7,2.3,19.2,13.3
			c0,0,15.2,12.9,14.1,19.5c-1,6.7-11.9,1.2-11.9,1.2s4.9,17.9,1.3,18.2c-3.6,0.3-6.6-2-6.6-2s2.5,6.3,0.5,6.9
			c-2,0.5-8.2,9.4-14.2-1.9c-5.9-11.3-6.6-12.6-6.6-12.6l-12.5-3.8c0,0-21.4,5.5-27,3.9s-15.6-6.1-15.6-6.1l-22.1-15l-11.5-53
			C-682.6,80.8-627.8,84-628.9,92.7z"/>
		<path class="st11" d="M-556.5,145c0,0-15.6-5.1-17.7-11l-3.1-5c0,0,1,7.4-8.1,4.2c-9-3.2-14.1-9.8-14.1-9.8s1.1,2.1-8.8,0.1
			c-9.9-2-12.9-2.8-16.9-5.4s-8.9-8.7-8.9-8.7s-9.6,4.3-11.6,1.1s-3.5-7.9-3.5-7.9s-4.2,10.8-3.1,14.2s-4.3-0.1-6.9-3.1
			c-2.6-3-17.6-5.8-17.6-5.8l-5.9-27.1c0,0,57.4,4.7,53.8,11.9l16.1,7c0,0,7.1,3.2,7.9,5.8c0.9,2.6,20.2,8.1,21,8.5
			s11.5,6.1,13.2,11.5C-570.6,125.5-554.4,139-556.5,145z"/>
		<path class="st3" d="M-573.6,162.5c0,0-8-12.4-13-17.1"/>
	</g>
	<path class="st10" d="M-834.7,233c0,0,58.6-3.8,73.4-21c14.8-17.2,0-116.8,0-116.8s-40.9-101.1-43.1-102
		c-2.3-0.8-13.9-1.4-13.9-1.4S-825.1,4-828.5,11c0,0-13.3,27.7-9.3,84C-833.8,151.4-834.7,233-834.7,233z"/>
	<path class="st4" d="M-834.7,233c0,0-34.6-3.9-48.7-3c-14.1,0.9-16.4-1.9-16.6-4.4c-0.2-2.4-2.3-44.1-4.5-63.4s-3.5-31.9-3-54.2
		s-2.7-27.5-3.5-30.2c-0.7-2.7-3.7-31.2,0-40.8s9.9-26,9.9-26h76.6L-834.7,233z"/>
	<path class="st10" d="M-885.3-19.3c0,0-17.9,4-15.7,30.5h82.7l16.3-18c0,0,3.9-3.4,1.9-4.9c-2-1.4-83.1-1.6-84.6-2.2
		S-885.3-19.3-885.3-19.3z"/>
	<path class="st4" d="M-798.9-92l-77.8-2.2c0,0-6.7-0.6-7.1,4c-0.4,4.6-1.9,71.6-1.9,71.6s-1.4,5.4,0.5,5.5s80.2,1.8,80.2,1.8
		L-798.9-92z"/>
	<path class="st0" d="M-722.6-119c0,0-0.2-9.3-36.1-8.2s-68.1,23.9-64.1,66.3c0,0-11.3,32.5,10.7,50.2c0,0-27.6,28.4-19.8,81.6
		c0,0-4.5,28.7-1.4,46.6s11.8,43.5,8.9,63.3s-9.5,17.3-5.6,85.8c0,0-1.9,17.3-1.6,30.9c0.4,13.6,4.7,24.5,3.1,28.7
		c-1.6,4.3-19.4,13.2-17.1,36.9c0,0-12.8-4.3-12,10.5c0,0-10,3.5-11,7.8s-17.3,7.8-17.3,7.8s-0.8,13.6-1.9,14
		c-1.2,0.4-13.2,3.5-17.1,8.5c-3.9,5-18.3,10.9-18.3,10.9s-31.1,8.9-31.8,12.8s-6.6,27.2,10.1,69.9c0,0,5,7.8,7.8,12
		c0,0,0,7,5.4,17.9s10.1,29.1,13.6,31.5c3.5,2.3,18.3-3.9,21-26.8c2.7-22.9,3.5-41.2,3.5-41.2s7.3,0.2,8.9,2
		c1.6,1.8,7.8-11.1,7.8-11.1s4.9-6.4,8.6-6.4s13.5-9.5,14.6-10.4s4.6-3.8,5.3-3.8s11.9-0.7,13.5-1.8c1.6-1.1,3.3-4.7,3.3-4.7
		s6.6,0.5,7.3-1.1s1.1-4.7,1.1-4.7s8.4,0.4,10.2,1.1s9.7-10,12.5-9.8c2.8,0.3,10.1-0.3,11.1-2.3s3.5-7.6,5.3-7.6s3-5.3,3-6.1
		c0-0.8,5.8-2,6.6-2.8s1.5-4.6,1.5-4.6s6.3-4.3,7.6-5.8s4.8-6.6,5.8-9.9s6.1-14.2,7.3-20c1.3-5.8,4.3-11.1,6.8-16.2
		s2.3-23.5,5.3-26.1c3-2.5,9.1-28.1,12.9-36.2c3.8-8.1,15.4-51.9,15.7-56.4c0.3-4.6,28-174.3,21.6-207.6c0,0-4.2-2.6-4.2-4.4
		s1.1-13.2,0.2-14.4s-1.1-4.3-1.1-7.3s-0.6-11.2-1.1-13.5s-0.6-2.3-0.6-2.3L-722.6-119z"/>
	<polygon class="st4" points="-721.7,124.8 -719.2,50.4 -684.2,48.8 -682.6,127.9 	"/>
	<polygon class="st10" points="-672.6,53.5 -706.1,53.5 -708,125.9 -693.9,127 -674.5,127.9 	"/>
	<path class="st4" d="M-696.4,53.5c0,0,10,46.3,9.1,52.6s2.6,16.6,6.3,18.1c3.7,1.6,6.5,3.8,6.5,3.8h-14.3c0,0-4.5-5.7-3.8-12.6
		c0.7-6.8-5.3-12.8-5.3-12.8L-696.4,53.5z"/>
	<path class="st4" d="M-682.6,127.9c0,0-3.4,7.5,0,9.1s10,4.4,10,4.4h-29.6l-11.7-8.8v-7.2L-682.6,127.9z"/>
	<path class="st4" d="M-713,132.7c0,0-11.3-2.3-14.9,0c-3.6,2.3-12.6,13.4-12.6,18c0,4.7,33.6,45.4,33.6,45.4l6-54.1L-713,132.7z"/>
	<path class="st12" d="M-694.9,20.2c0,0-130.2-1.4-132.9-2.6c0,0-5.8,18-5.4,31.2c0,0,140.2,1,143.4-2.5l-4.2-4.4
		c0,0,1.4-7.1,0.2-14.4S-693.8,33.7-694.9,20.2z"/>
	<path class="st3" d="M-695.2,14c0,0-20.6,3.7-37.8-8.3s-32.6-29.5-37.8-37.8s-12.1-34.1-3.6-52.2s20.6-38.6,31.6-42.7
		c0,0,15.9-0.4,20.2,7.9c0,0-33.2,44.6-25.8,68.2s51.8,55.3,51.8,55.3L-695.2,14z"/>
	<ellipse class="st14" cx="-846.6" cy="-32" rx="11.4" ry="13.6"/>
	<path class="st10" d="M-912.6,58.3h32.7v20.4l-30.6,0.3c0,0-0.5-1.2-0.8-4.2C-911.7,71.7-912.6,58.3-912.6,58.3z"/>
	<polygon class="st10" points="-836.4,120.7 -861.3,120.7 -861.3,104.5 -837.2,104.5 	"/>
	<polygon class="st10" points="-902.3,187.5 -866.7,187.5 -866.7,203.4 -901.2,203.4 	"/>
	<path class="st11" d="M-881.7,466.3c0,0-20.6-20.6-24.7-38.8"/>
	<path class="st11" d="M-774.4,406.9c0,0-51.1-22.4-60-36.5"/>
	<path class="st11" d="M-796.7,420.6c0,0-42.6-37.4-45.7-47.5"/>
	<path class="st11" d="M-738.3,287.2c0,0-42.5-15.5-77.2-8.2"/>
	<path class="st11" d="M-731.9,258c0,0-37.9-9.1-61.7-8.7"/>
	<path class="st11" d="M-754.7,265.7c0,0-26.1-5-63.5-3.7"/>
	<path class="st11" d="M-726.9,73.8c0,0-9.4,21.3-14.7,23"/>
	<path class="st11" d="M-725.3,88.4c0,0-13.7,16.5-16.3,24.3"/>
	<path class="st11" d="M-700.9,26.5c0,0-17.1,1.2-35.9,0"/>
	<path class="st11" d="M-700.9,35.2c0,0-8.2,1.7-26.1,0"/>
	<path class="st6" d="M-696.6,4.5c0,0-47-7.2-65.8-47.9s39.8-75.6,39.8-75.6s2.2,2.7,5.8,5.4s20.1,5.8,34.9,28.6
		S-664.4-28.2-696.6,4.5z"/>
	<ellipse class="st5" cx="-849.5" cy="-32" rx="8.5" ry="12.7"/>
	<path class="st11" d="M-702.2,141.4c0,0-7.5-1.2-11.7-8.8"/>
	<path class="st11" d="M-713.9,131.7c0,0,20.3,1.8,25.1,1.3"/>
	<polygon class="st11" points="-672.6,53.5 -684.2,48.8 -719.2,50.4 -706.1,53.5 	"/>
	<path class="st18" d="M-706.3-101.8c0,0,30,42.4,18.5,79.9c0,0,9.1-22.9,7.4-37S-706.3-101.8-706.3-101.8z"/>
	<path class="st10" d="M-672.6,141.4c0,0,0.4,57-8.4,59.7l-27-5.1l5.8-54.5L-672.6,141.4L-672.6,141.4z"/>
	<path class="st3" d="M-617.3,127c0,0,5.4,12.7-5.7,18"/>
	<path class="st3" d="M-815.5,175.5c0,0,26.6-4.7,52.3,0.9"/>
	<path class="st11" d="M-900.9,1.9c0,0,58.4,0,59.8,1.1"/>
	<g>
		<path class="st4" d="M-617.9,99.6c0,0,27.4,1,35,8.9c0,0,0.4,8.1-0.8,9s-5.9,0.4-5.1,3.5c0.8,3.1,4.6,25.9,3.7,26.5
			c-0.9,0.6-8.3-0.4-9.1,1.5s-2.8,17.1-4.3,20.8s-4.1,19.8,0,26.6s15.4,22.3,2.5,28.7c0,0-18.9,7.4-22.1,4.5
			c-3.2-2.9-9.4-7.9-5.6-18.7c3.8-10.8-0.9-30.9-1.1-34.2c-0.2-3.4-1.3-20.8,0.9-23.7C-623.9,152.9-626.5,112.5-617.9,99.6z"/>
		<path class="st4" d="M-608.3,100.4c0,0,9.2-24.3,29.4-33.9c0,0,1.4-3.2,1.8-4c0.4-0.8,9.4-6.5,9.4-6.5s8.8,6.3,7.5,13.2l-9.4,6.5
			l-4.9-0.2c0,0-19.7,8.2-22.4,25.9L-608.3,100.4z"/>
		<path class="st10" d="M-567.7,56.1c0,0,4.5-2.5,5.7-3.1c0,0,9.1,7.5,7,13.4l-5.2,2.8C-560.1,69.3-559.4,61.7-567.7,56.1z"/>
		<path class="st18" d="M-561.2,53.7l28.3-15.6c0,0,7.9,2.7,5.6,10.1L-554.7,65L-561.2,53.7z"/>
		<path class="st7" d="M-588,124.7c0,0-3-0.4-3.6-0.1c-0.6,0.4-7.4,11.1-0.5,20l7.1,0.6L-588,124.7z"/>
		<path class="st3" d="M-612.5,105.8l8.1,2c0,0-13.8,50.7-9.6,87.7c0,0,10,10.7,20.3,8.7c0,0,2.2,3.6,2.9,6.8
			c0,0-20.8,14.5-33.4,10.5c0,0-1.8-5,0.5-10.7s1.4-14.3,1.4-14.3s-3.2-24-2.9-31.7s-0.1-9.4,1.4-11.9c1.4-2.5,2.8-4.5,2.8-4.5
			L-612.5,105.8z"/>
		<path class="st4" d="M-614.9,252.9c0,0,17.2-0.7,27.2-9c0,0,0.7-1.5-1-4.1c0,0,2.6-5.4-1-9s-4.8-3.2-4.8-3.2l-1.6-2.6
			c0,0-12.3,4.9-18.5,5.1c0,0,0.8,2.2-0.1,2.6c-0.9,0.4-6.8,10.3,0.1,14.8C-614.5,247.5-617.1,250.9-614.9,252.9z"/>
	</g>
	<g>
		<path class="st11" d="M-740.3,74.9c0,0-40.1-0.2-75,37.9c0,0,14.7,38,52.1,63.6c0,0,5.3,5.7,12.5,9.2s49.7-0.6,53.9,0.5
			c4.2,1,10.6,8.1,24.4,1.8c0,0,4.8,5.5,21.8,2.5c0,0,9.2,0.9,10,2.3c0,0,35.9,15.3,41.8,21.3c0,0,9.4,2.5,6.4-5.1
			c-2.9-7.7-13.9-11.1-13.9-11.1s-6.3-6.2-7.2-9.1c-0.9-2.8,13,4.7,14,6.8s7.8,11.2,12.9,13.7c5.1,2.6,7.4-1.1,4.5-5.7
			c-2.9-4.6-6.3-12.8-8.7-14.4c-2.4-1.6-10.3-9.8-12-10.3c0,0,5.8,1.2,9.7,4.2s7.7,14.7,13.3,14.7c5.6,0.1,8.3-5.5,6.3-8.5
			s-10.1-13-12.8-14.2s-8.9-5.4-8.9-5.4s9.8,3.1,11.6,6.2s9.2,13.7,12.4,11.9c3.2-1.7,5.1-5.4,3.8-7.4s-7.9-11.9-12.5-13.6
			c-1.6-0.6-3.3-1.4-4.9-2.4c-3.1-1.7-5.7-3.6-5.7-3.6l6.8,2.3c0,0-8.3-10.7-14.1-13.9c0,0-14.9-11.6-27.7-13.3c0,0-7.3-4.8-9.6-3.6
			c0,0-2.7-5.1-4.3-5.3c-1.5-0.2-29-6.4-29.2-7.5s-4.9-3.3-7.8-1.9c0,0-3-4.3-11.9-6.3s-25.9-0.8-26.3-0.1c0,0-4.9-10.9-6.7-12.8
			s-3.7-1.5-4.5-2.9s-2.4-8.6-5.7-7.8c-3.3,0.8-5.9-0.3-6.7-2.5C-739,82.8-740.3,74.9-740.3,74.9z"/>
		<path class="st11" d="M-815.9,15.7c0,0,42.2-15.8,58.6,8.3s17.8,43,17.8,43l-0.8,7.9c0,0-40.8,0.4-75,37.9c0,0-1.4-2.8-5.3-5
			c-4-2.3-18.6-12.4-23-29S-847.4,28.9-815.9,15.7z"/>
		<path class="st3" d="M-741.6,124.1c0,0-24.4,29.6-16.7,49.6"/>
		<path class="st3" d="M-736.5,133.7c0,0-16.7,25.7-12.1,41.9"/>
		<path class="st0" d="M-676.5,117.5c0,0-5.1,13.9-13.2,19.1s-41.1-2.9-42.4-5.3s7.9-12.3,17.4-20.2
			C-714.6,111.1-684.2,106.8-676.5,117.5z"/>
		<path class="st3" d="M-627.6,149.6c0,0-20.9,27.2-13,43"/>
		<path class="st3" d="M-639.4,127c0,0-19,21.8-17.5,30.9"/>
		<path class="st3" d="M-662,121.6c0,0-22.2,25.5-14.5,46.8"/>
		<path class="st3" d="M-781.2,109.1c0,0,22.6-20.7,38.1-24.4"/>
		<path class="st3" d="M-739.5,67c0,0-43.4-0.9-81.1,40.8l5.3,5c0,0,29-34.2,75-37.9C-740.3,74.9-738.6,72.5-739.5,67z"/>
	</g>
	<path class="st3" d="M210.3,201.8c0,0-12.8,0.7-22.3-7.9s-17.5-20.4-20-25.8c-2.5-5.4-4.7-21.6,1.8-32
		c6.6-10.3,15.4-21.9,22.4-23.5c0,0,9.7,1,11.7,6.4c0,0-23.5,24.5-20.9,39.4s27.2,37.5,27.2,37.5L210.3,201.8z"/>
	<path class="st6" d="M210.2,195.9c0,0-28-7.9-36.3-34.1s30-42.8,30-42.8s1.2,1.8,3.1,3.7c2,1.9,11.8,5.1,19,20.1
		C233.2,157.7,232.2,178.6,210.2,195.9z"/>
	<path class="st18" d="M212.4,130.7c0,0,14.9,28,5.1,49.9c0,0,7.3-13.2,7.3-21.9C224.9,150.1,212.4,130.7,212.4,130.7z"/>
	<path class="st0" d="M217.5,226.3c0,0-5.6-14.1-7.2-24.5c0,0-21.2-12.3-26.7-17.1s-15.2-22.9-14.6-29c0.5-6.1,3.6-20.7,13.4-28.4
		s15.3-13.4,15.3-13.4s-7.3-1.7-10.9-1.8c-3.6-0.1-14.3-1.5-24.8,7.8c-10.6,9.3-24,36.1-13.8,63.6s16.2,47.8,19,57.6
		C169.9,250.8,217.5,226.3,217.5,226.3z"/>
	<path class="st0" d="M169.7,300.6c0,0-5.5-72-14.1-96.3l54.7-2.6c0,0,4.1,13.2,8.3,15.8s15.1,17.6,11.1,28.1
		c-4,10.5-7.6,65.7-7.6,65.7L169.7,300.6z"/>
	<path class="st3" d="M182.2,353.8l-10.3-72.1l4.6-72.9c0-0.1,3.4-11.8,17.4-11.2c3.1,0.1,6.1,1.4,8.2,3.7c5.5,6.1,5,17.4,4.9,17.8
		L195.8,287l7.9,65.6L182.2,353.8z"/>
	<path class="st0" d="M261.1,573.3c0,0,32.3-0.8,42.1-12.2L261.1,573.3z"/>
	<path class="st3" d="M254.9,413.2c0,0-5.5,2.6-3.4,7.6s4.2,18.2,6.1,18.6c0,0,1.2,1.4,1.9,1.3C259.5,440.8,259.5,429.9,254.9,413.2
		z"/>
	<path class="st3" d="M176,439.7c0,0,5.5-13.8,6.2-19.9c0,0-1.4-3.9-3.1-3.9c-1.7,0-7.1,7.3-7.3,11.1c-0.2,3.8-2.8,9.5-0.7,10.8
		S176,439.7,176,439.7z"/>
	<path class="st3" d="M226.2,265.9c0,0-5-2.2-10.1-0.9c-5.1,1.2-5.2,44.1-4.9,44.2s8,5.3,11,2.2
		C222.1,311.4,224.9,281.6,226.2,265.9z"/>
	<rect x="537.8" y="32.5" class="st15" width="65.6" height="10.3"/>
	<text transform="matrix(1 0 0 1 553.6579 41.5567)" class="st1 st20 st21">HTML</text>
	<rect x="335.8" y="196.3" class="st15" width="65.6" height="10.3"/>
	<text transform="matrix(1 0 0 1 357.5436 205.3646)" class="st1 st20 st21">CSS</text>
	<rect x="537.8" y="359.4" class="st15" width="65.6" height="10.3"/>
	<text transform="matrix(1 0 0 1 564.0974 368.4303)" class="st1 st20 st21">JS</text>
	<g>
		<g>
			<polygon class="st17" points="188.9,226.9 190.6,218 191.4,227 195.3,224.9 192.6,228.8 200.3,230.1 192.4,231 194.9,235.2 
				190.8,232.6 189.5,240.9 188.6,232.4 184.5,234.4 187.7,230.8 178.6,229.4 187.2,228.6 184.9,224.3 			"/>
		</g>
	</g>
</g>
<g id="Origineel">
	<path class="st2" d="M1247.6,187.5c-1.9,0-3.5,1.6-3.5,3.5s1.6,3.5,3.5,3.5h165c1.9,0,3.5-1.6,3.5-3.5s-1.6-3.5-3.5-3.5H1247.6z"/>
	<path class="st2" d="M1247.6,208.5c-1.9,0-3.5,1.6-3.5,3.5s1.6,3.5,3.5,3.5h71c1.9,0,3.5-1.6,3.5-3.5s-1.6-3.5-3.5-3.5H1247.6z"/>
	<path class="st2" d="M1183,242.1c-2.7,0-4.8,1.6-4.8,3.5s2.2,3.5,4.8,3.5h227.6c2.7,0,4.8-1.6,4.8-3.5s-2.2-3.5-4.8-3.5H1183z"/>
	<path class="st2" d="M1183,263.1c-2.7,0-4.8,1.6-4.8,3.5s2.2,3.5,4.8,3.5h227.6c2.7,0,4.8-1.6,4.8-3.5s-2.2-3.5-4.8-3.5H1183z"/>
	<path class="st1" d="M1636.1,133h-270c-2.8,0-5-2.2-5-5V5c0-2.8,2.2-5,5-5h270c2.8,0,5,2.2,5,5v123
		C1641.1,130.7,1638.8,133,1636.1,133z"/>
	<path class="st8" d="M1636.1,133h-270c-2.8,0-5-2.2-5-5V5c0-2.8,2.2-5,5-5h270c2.8,0,5,2.2,5,5v123
		C1641.1,130.7,1638.8,133,1636.1,133z M1366.1,2c-1.7,0-3,1.3-3,3v123c0,1.7,1.3,3,3,3h270c1.7,0,3-1.3,3-3V5c0-1.7-1.3-3-3-3
		H1366.1z"/>
	<circle class="st9" cx="1401.1" cy="38.5" r="21"/>
	<path class="st2" d="M1449.6,24.5c-1.9,0-3.5,1.6-3.5,3.5s1.6,3.5,3.5,3.5h165c1.9,0,3.5-1.6,3.5-3.5s-1.6-3.5-3.5-3.5H1449.6z"/>
	<path class="st2" d="M1449.6,45.5c-1.9,0-3.5,1.6-3.5,3.5s1.6,3.5,3.5,3.5h71c1.9,0,3.5-1.6,3.5-3.5s-1.6-3.5-3.5-3.5H1449.6z"/>
	<path class="st2" d="M1385,79.1c-2.7,0-4.8,1.6-4.8,3.5s2.2,3.5,4.8,3.5h227.6c2.7,0,4.8-1.6,4.8-3.5s-2.2-3.5-4.8-3.5H1385z"/>
	<path class="st2" d="M1385,100.1c-2.7,0-4.8,1.6-4.8,3.5s2.2,3.5,4.8,3.5h227.6c2.7,0,4.8-1.6,4.8-3.5s-2.2-3.5-4.8-3.5H1385z"/>
	<path class="st1" d="M1636.1,459h-270c-2.8,0-5-2.2-5-5V331c0-2.8,2.2-5,5-5h270c2.8,0,5,2.2,5,5v123
		C1641.1,456.7,1638.8,459,1636.1,459z"/>
	<path class="st8" d="M1636.1,459h-270c-2.8,0-5-2.2-5-5V331c0-2.8,2.2-5,5-5h270c2.8,0,5,2.2,5,5v123
		C1641.1,456.7,1638.8,459,1636.1,459z M1366.1,328c-1.7,0-3,1.3-3,3v123c0,1.7,1.3,3,3,3h270c1.7,0,3-1.3,3-3V331c0-1.7-1.3-3-3-3
		H1366.1z"/>
	<circle class="st9" cx="1401.1" cy="364.5" r="21"/>
	<path class="st2" d="M1449.6,350.5c-1.9,0-3.5,1.6-3.5,3.5s1.6,3.5,3.5,3.5h165c1.9,0,3.5-1.6,3.5-3.5s-1.6-3.5-3.5-3.5H1449.6z"/>
	<path class="st2" d="M1449.6,371.5c-1.9,0-3.5,1.6-3.5,3.5s1.6,3.5,3.5,3.5h71c1.9,0,3.5-1.6,3.5-3.5s-1.6-3.5-3.5-3.5H1449.6z"/>
	<path class="st2" d="M1385,405.1c-2.7,0-4.8,1.6-4.8,3.5s2.2,3.5,4.8,3.5h227.6c2.7,0,4.8-1.6,4.8-3.5s-2.2-3.5-4.8-3.5H1385z"/>
	<path class="st2" d="M1385,426.1c-2.7,0-4.8,1.6-4.8,3.5s2.2,3.5,4.8,3.5h227.6c2.7,0,4.8-1.6,4.8-3.5s-2.2-3.5-4.8-3.5H1385z"/>
	<polygon class="st22" points="1090.9,560 1104.3,556.1 1095.7,502.6 1075.9,508.4 	"/>
	<path class="st23" d="M1133.7,561l-42.1,12.2l0,0l-4.7-16.3l0,0l27.8-8.1c7.9-2.3,16.2,2.2,18.4,10.1L1133.7,561L1133.7,561z"/>
	<polygon class="st22" points="952.6,560.3 966.5,560.3 973.1,506.5 952.6,506.5 	"/>
	<path class="st23" d="M993.4,573.2h-43.8l0,0v-16.9l0,0h28.9c8.2,0,14.9,6.7,14.9,14.9L993.4,573.2L993.4,573.2z"/>
	<path class="st22" d="M985.4,373.1c4-4.9,3.3-12.1-1.5-16.1c-0.5-0.4-1.1-0.8-1.7-1.1l7.2-40l-19.4,8.3l-3.9,36.7
		c-2.7,5.7-0.3,12.6,5.4,15.3C976.3,378.6,982,377.3,985.4,373.1z"/>
	<path class="st9" d="M966.8,348.8l19.1,3.9l8.9-64.5v-0.1l28-62.8c0-0.1,3.4-10.8-0.2-17.7c-1.3-2.5-3.6-4.4-6.4-5.2
		c-12.3-3.8-18,5.1-18.5,5.9L975,277.4L966.8,348.8z"/>
	<path class="st23" d="M1074.2,549.5l-22.8-101.7l-32.3-68l-35,167.3l-52.2-5.8l47.9-176.7c-0.7-2.7-11.2-43,20.6-64l5.5-18.5
		l47.2,11l-0.6,44.1l39.8,90.9l34.3,105.1L1074.2,549.5z"/>
	<path class="st9" d="M1054.6,299.2l-48.7-4.6l1.1-29.9c-1.7-3.1-24.7-44.9-9.5-60.1l4.6-6.9l0.1-0.1c0.2-0.1,18.8-10.2,34.7,10.4
		c3.7,4.6,7.6,8.9,11.8,13c10.3,10.4,17,17.2,7.7,35.2L1054.6,299.2z"/>
	<circle class="st22" cx="1026.2" cy="160.8" r="27.9"/>
	<path class="st22" d="M1037.7,371.6c2.7-5.7,0.2-12.5-5.6-15.2c-0.6-0.3-1.2-0.5-1.9-0.7l-3.1-40.5l-16.7,12.9l5.5,36.5
		c-1.2,6.2,2.9,12.3,9.1,13.5C1030.3,379.1,1035.5,376.4,1037.7,371.6L1037.7,371.6z"/>
	<path class="st9" d="M1012.7,353.8l-10.3-72.1l4.6-72.9c0-0.1,3.4-11.8,17.4-11.2c3.1,0.1,6.1,1.4,8.2,3.7c5.5,6.1,5,17.4,4.9,17.8
		l-11.2,67.9l7.9,65.6L1012.7,353.8z"/>
	<path class="st23" d="M1062.9,139.5c-1-5.7-5.8-10.3-11.1-12.5c-5.4-2.3-11.3-2.7-17.1-3c-4.9-0.4-9.9-0.4-14.9,0
		c0.7-0.9,1.1-1.9,1.3-2.9c0.4-2.5-1-5.3-3.5-5.8c-1.8-0.4-3.6,0.4-5.4,0.9c-1.8,0.5-3.9,0.7-5.2-0.5c-1.5-1.4-1.1-4-2.4-5.6
		c-1.2-1.5-3.5-1.7-5.4-1c-1.8,0.8-3.4,2-4.7,3.5l-1.7,1.6c-0.1-0.1-0.3-0.2-0.4-0.3c-4.4-3.4-6.6-8.5-4.1-12.7
		c-2.6,4.4-2.3,9.9,0.6,14c0.4,0.6,0.8,1.1,1.3,1.6c-0.9,0.9-1.7,1.7-2.6,2.6c-1.3,1.3-2.8,3-2.4,4.8c0.4,1.9,2.7,2.9,4.6,2.6
		c1.6-0.3,3.1-1,4.4-2c-1.8,1.3-3.2,2.9-4.1,4.9c-1.1,2.3-0.8,5,0.7,7c1.1,1.2,2.6,1.9,4.2,2.1c-2.8,4.1-4.7,8.8-5.4,13.8
		c-1.6,13,4.4,25.7,15.5,32.7c2.9,2,6.4,3.1,9.9,3.2c3.5-0.1,7.1-1.8,8.7-5c1.7-3.3,0.9-7.2,0.2-10.8s-1.2-7.6,1-10.6
		c2.1-3,7.8-3.2,8.8,0.4c4-6.8,11.9-10.4,19.6-8.8l1.5,2.4C1060.5,155.5,1063.8,145.2,1062.9,139.5z"/>
	<path class="st24" d="M1212.5,574.2h-381c-0.6,0-1-0.4-1-1s0.4-1,1-1h381c0.6,0,1,0.4,1,1S1213.1,574.2,1212.5,574.2z"/>
</g>
</svg>
