<svg id="a558ce24-c316-4979-8b6d-6e9831eceb7c" xmlns="http://www.w3.org/2000/svg" viewBox="0 0 810.54 574.18"><defs><style>.cls-1{fill:#fff;}.cls-2{fill:#3f3d56;}.cls-3{fill:#6c63ff;}.cls-4{fill:#e6e6e6;}.cls-5{fill:#9f616a;}.cls-6{fill:#2f2e41;}.cls-7{fill:#ccc;}</style></defs><path class="cls-1" d="M603.54,296h-270a5,5,0,0,1-5-5V168a5,5,0,0,1,5-5h270a5,5,0,0,1,5,5V291A5,5,0,0,1,603.54,296Z"/><path class="cls-2" d="M603.54,296h-270a5,5,0,0,1-5-5V168a5,5,0,0,1,5-5h270a5,5,0,0,1,5,5V291A5,5,0,0,1,603.54,296Zm-270-131a3,3,0,0,0-3,3V291a3,3,0,0,0,3,3h270a3,3,0,0,0,3-3V168a3,3,0,0,0-3-3Z"/><circle class="cls-3" cx="368.54" cy="201.49" r="21"/><path class="cls-4" d="M417,187.49a3.5,3.5,0,1,0,0,7H582a3.5,3.5,0,0,0,0-7Z"/><path class="cls-4" d="M417,208.49a3.5,3.5,0,1,0,0,7h71a3.5,3.5,0,0,0,0-7Z"/><path class="cls-4" d="M352.43,242.06c-2.66,0-4.82,1.57-4.82,3.5s2.16,3.5,4.82,3.5H580.08c2.67,0,4.83-1.57,4.83-3.5s-2.16-3.5-4.83-3.5Z"/><path class="cls-4" d="M352.43,263.06c-2.66,0-4.82,1.57-4.82,3.5s2.16,3.5,4.82,3.5H580.08c2.67,0,4.83-1.57,4.83-3.5s-2.16-3.5-4.83-3.5Z"/><path class="cls-1" d="M805.54,133h-270a5,5,0,0,1-5-5V5a5,5,0,0,1,5-5h270a5,5,0,0,1,5,5V128A5,5,0,0,1,805.54,133Z"/><path class="cls-2" d="M805.54,133h-270a5,5,0,0,1-5-5V5a5,5,0,0,1,5-5h270a5,5,0,0,1,5,5V128A5,5,0,0,1,805.54,133ZM535.54,2a3,3,0,0,0-3,3V128a3,3,0,0,0,3,3h270a3,3,0,0,0,3-3V5a3,3,0,0,0-3-3Z"/><circle class="cls-3" cx="570.54" cy="38.49" r="21"/><path class="cls-4" d="M619,24.49a3.5,3.5,0,0,0,0,7H784a3.5,3.5,0,0,0,0-7Z"/><path class="cls-4" d="M619,45.49a3.5,3.5,0,0,0,0,7h71a3.5,3.5,0,0,0,0-7Z"/><path class="cls-4" d="M554.43,79.06c-2.66,0-4.82,1.57-4.82,3.5s2.16,3.5,4.82,3.5H782.08c2.67,0,4.83-1.57,4.83-3.5s-2.16-3.5-4.83-3.5Z"/><path class="cls-4" d="M554.43,100.06c-2.66,0-4.82,1.57-4.82,3.5s2.16,3.5,4.82,3.5H782.08c2.67,0,4.83-1.57,4.83-3.5s-2.16-3.5-4.83-3.5Z"/><path class="cls-1" d="M805.54,459h-270a5,5,0,0,1-5-5V331a5,5,0,0,1,5-5h270a5,5,0,0,1,5,5V454A5,5,0,0,1,805.54,459Z"/><path class="cls-2" d="M805.54,459h-270a5,5,0,0,1-5-5V331a5,5,0,0,1,5-5h270a5,5,0,0,1,5,5V454A5,5,0,0,1,805.54,459Zm-270-131a3,3,0,0,0-3,3V454a3,3,0,0,0,3,3h270a3,3,0,0,0,3-3V331a3,3,0,0,0-3-3Z"/><circle class="cls-3" cx="570.54" cy="364.49" r="21"/><path class="cls-4" d="M619,350.49a3.5,3.5,0,0,0,0,7H784a3.5,3.5,0,0,0,0-7Z"/><path class="cls-4" d="M619,371.49a3.5,3.5,0,0,0,0,7h71a3.5,3.5,0,0,0,0-7Z"/><path class="cls-4" d="M554.43,405.06c-2.66,0-4.82,1.57-4.82,3.5s2.16,3.5,4.82,3.5H782.08c2.67,0,4.83-1.57,4.83-3.5s-2.16-3.5-4.83-3.5Z"/><path class="cls-4" d="M554.43,426.06c-2.66,0-4.82,1.57-4.82,3.5s2.16,3.5,4.82,3.5H782.08c2.67,0,4.83-1.57,4.83-3.5s-2.16-3.5-4.83-3.5Z"/><polygon class="cls-5" points="260.37 559.99 273.75 556.1 265.13 502.62 245.37 508.36 260.37 559.99"/><path class="cls-6" d="M303.18,561l-42.07,12.22h0L256.39,557h0l27.77-8.07a14.89,14.89,0,0,1,18.45,10.14l.57,2Z"/><polygon class="cls-5" points="122.04 560.31 135.98 560.31 142.61 506.54 122.03 506.54 122.04 560.31"/><path class="cls-6" d="M162.86,573.25H119.05V556.32H148a14.89,14.89,0,0,1,14.89,14.89v2Z"/><path class="cls-5" d="M154.83,373.15a11.44,11.44,0,0,0-1.54-16.1,12.52,12.52,0,0,0-1.66-1.14l7.23-40-19.41,8.3-3.9,36.69a11.5,11.5,0,0,0,19.28,12.23Z"/><path class="cls-3" d="M136.26,348.81l19.12,3.88,8.85-64.54,0-.06,28-62.84c0-.06,3.38-10.76-.23-17.69a10.3,10.3,0,0,0-6.38-5.2c-12.34-3.8-18,5.13-18.49,5.92l-22.77,69.15Z"/><path class="cls-6" d="M243.66,549.46,220.81,447.8l-32.31-68-35,167.27-52.19-5.8,47.87-176.66c-.75-2.7-11.22-43,20.55-64l5.5-18.47,47.17,11-.57,44.07,39.75,90.86,34.28,105.13Z"/><path class="cls-3" d="M224,299.24l-48.75-4.64,1.15-29.89c-1.74-3.12-24.67-44.92-9.55-60.14l4.59-6.88.1-.05c.19-.11,18.75-10.21,34.75,10.36a142.15,142.15,0,0,0,11.77,13c10.26,10.36,17,17.2,7.66,35.18Z"/><circle class="cls-5" cx="195.65" cy="160.84" r="27.93"/><path class="cls-5" d="M207.19,371.59a11.44,11.44,0,0,0-5.57-15.18,11.62,11.62,0,0,0-1.9-.68l-3.11-40.51-16.68,12.94,5.51,36.48a11.5,11.5,0,0,0,21.75,6.95Z"/><path class="cls-3" d="M182.2,353.79l-10.31-72.13,4.57-72.92c0-.12,3.39-11.8,17.41-11.19a11.3,11.3,0,0,1,8.19,3.75c5.53,6.1,5,17.36,4.94,17.83L195.78,287l7.87,65.59Z"/><path class="cls-6" d="M232.31,139.46c-1-5.75-5.76-10.27-11.13-12.54s-11.32-2.68-17.15-3a91,91,0,0,0-14.86,0,6.9,6.9,0,0,0,1.31-2.92c.42-2.47-1-5.26-3.54-5.8-1.78-.39-3.61.37-5.38.89s-3.91.73-5.23-.5c-1.5-1.41-1.14-4-2.42-5.56s-3.55-1.7-5.39-1a14.17,14.17,0,0,0-4.67,3.49l-1.66,1.65c-.15-.11-.31-.21-.45-.32-4.37-3.44-6.55-8.49-4.07-12.73a12.94,12.94,0,0,0,.65,14,16.13,16.13,0,0,0,1.25,1.61L157,119.4c-1.34,1.32-2.79,3-2.45,4.78s2.66,2.92,4.63,2.64a10.39,10.39,0,0,0,4.38-2,12.74,12.74,0,0,0-4.14,4.92,6.74,6.74,0,0,0,.74,7,6.34,6.34,0,0,0,4.22,2.06A32.62,32.62,0,0,0,159,152.55a33.9,33.9,0,0,0,15.46,32.68,18.52,18.52,0,0,0,9.91,3.15c3.51-.07,7.13-1.83,8.72-5s.89-7.17.2-10.77-1.15-7.64,1-10.63,7.81-3.17,8.77.36a18.49,18.49,0,0,1,19.61-8.82l1.52,2.44C229.94,155.5,233.3,145.21,232.31,139.46Z"/><path class="cls-7" d="M382,574.18H1a1,1,0,0,1,0-2H382a1,1,0,0,1,0,2Z"/></svg>