<svg xmlns="http://www.w3.org/2000/svg" xmlns:xlink="http://www.w3.org/1999/xlink" viewBox="0 0 595.28 595.28"><defs><style>.cls-1{fill:none;}.cls-2{fill:#fbba39;}.cls-3{fill:#d7569a;}.cls-4{fill:#5e509d;}.cls-5{fill:#d73a8b;}.cls-6{fill:#fcc742;}.cls-7{fill:#319dd1;}.cls-8{clip-path:url(#clip-path);}.cls-9{fill:#7ab8db;}</style><clipPath id="clip-path"><circle class="cls-1" cx="405.79" cy="333.24" r="35.77"/></clipPath></defs><g id="Laag_2" data-name="Laag 2"><path class="cls-2" d="M250.14,280.08s-65.5-26.91-75.79-25.94c0,0,17.6,6.24,11.16,8s-50.39-9.3-50.39-9.3,29.73,11.65,17.24,9.76-52.94-12.43-52.94-12.43,24.45,8.09,18.26,8.77-52.21-10.26-52.21-10.26,16.63,7,8.94,7.16-48.13-6.73-48.13-6.73S71,260.57,71.52,261.79s-15.49.79-15.49.79,57.72,10.85,57.06,13.92-9,4.3-9,4.3,42.31,3.79,40.12,6.49-22.17,0-22.17,0,56,9.66,51.74,12.38a33.6,33.6,0,0,1-10.1,3.85s75.1,12.2,79.47,8.91Z"/><path class="cls-3" d="M238,280.11l-5.82,27S398,460,526.09,362C526.09,362,487.89,216,238,280.11Z"/><path class="cls-4" d="M503.64,322.47s-15.82,30.69-13,60.25c0,0,22.11-8.7,35.46-20.68C526.09,362,517.15,336.48,503.64,322.47Z"/><polygon class="cls-5" points="255.45 275.89 237.97 280.11 232.15 307.09 246.17 318.87 255.45 275.89"/><path class="cls-4" d="M339.1,268.7S289,205,223.4,237.35c0,0,25-.5,39.92,12.4s21.21,20.35,21.21,20.35,4.58,3.38,6.43,3.54S339.1,268.7,339.1,268.7Z"/><path class="cls-4" d="M322,365S250.1,402.31,203.66,345.8c0,0,22.57,10.77,41.47,5.18s27.72-9.79,27.72-9.79,5.56-1.2,7.32-.58S322,365,322,365Z"/><circle class="cls-5" cx="406.43" cy="332.66" r="45.76"/><circle class="cls-3" cx="414.33" cy="293.64" r="2.26"/><circle class="cls-3" cx="393.14" cy="294.77" r="2.26"/><circle class="cls-3" cx="375.6" cy="305.9" r="2.26"/><circle class="cls-3" cx="366.79" cy="324.82" r="2.26"/><circle class="cls-3" cx="368.15" cy="345.27" r="2.26"/><circle class="cls-3" cx="378.54" cy="362.45" r="2.26"/><circle class="cls-3" cx="396.71" cy="372.65" r="2.26"/><circle class="cls-3" cx="418.3" cy="371.68" r="2.26"/><circle class="cls-3" cx="435.42" cy="360.51" r="2.26"/><circle class="cls-3" cx="445.6" cy="341.83" r="2.26"/><circle class="cls-3" cx="444.83" cy="319.64" r="2.26"/><circle class="cls-3" cx="432.44" cy="302.39" r="2.26"/><path class="cls-6" d="M238,280.11s-26.17-16.3-30.73-14.63c0,0,7.12,3.58,4.17,5.6s-21.12-3.24-21.12-3.24,11.93,6.94,6.66,6.47-22-5.57-22-5.57,9.94,4.49,7.19,5.58-21.82-3.88-21.82-3.88,6.63,4.29,3.27,5.07-20.35-1.34-20.35-1.34,18.45,5.47,18.58,6.42-6.8,2-6.8,2,24.17,3.87,23.61,6.44-4.28,4.28-4.28,4.28,18.08-.56,16.89,1.83-9.64,1.91-9.64,1.91,23.51,3.06,21.44,5.64a17.61,17.61,0,0,1-4.73,4s31.62,3.48,33.8.42Z"/><path class="cls-2" d="M237.34,283s-59.35-9.12-69.65-5c0,0,24.66,19.75,65.19,25.65Z"/><circle class="cls-7" cx="405.8" cy="333.2" r="35.77"/><g class="cls-8"><path class="cls-9" d="M424.94,304.67l-29.89,13.18,2-9.38-25.36,9.38s-11.71,25,3.75,31.31L414.4,335.1l-5.25,12,31.52-13.36S445.63,308.34,424.94,304.67Z"/></g><path class="cls-4" d="M341.4,318.62s13.45-40.92-153-33C188.35,285.58,332.14,363.69,341.4,318.62Z"/></g></svg>